<?xml version="1.0" encoding="UTF-8"?>
<svg xmlns="http://www.w3.org/2000/svg" xmlns:xlink="http://www.w3.org/1999/xlink" version="1.1" viewBox="0 0 864 864">
  <!-- Generator: Adobe Illustrator 29.4.0, SVG Export Plug-In . SVG Version: 2.1.0 Build 152)  -->
  <defs>
    <style>
      .st0 {
        fill: none;
      }

      .st1 {
        stroke-width: 1.32px;
      }

      .st1, .st2, .st3 {
        fill: #f4a0bd;
        stroke: #c57895;
        stroke-miterlimit: 10;
      }

      .st2 {
        stroke-width: 1.15px;
      }

      .st4 {
        fill: #e19c6b;
      }

      .st3 {
        stroke-width: 2.88px;
      }

      .st5 {
        clip-path: url(#clippath);
      }
    </style>
    <clipPath id="clippath">
      <path class="st0" d="M684.08,324.44l-232.58,232.58c-12.15,12.15-31.85,12.15-44,0l-232.58-232.58C15.14,164.65,269.71-89.93,429.5,69.86c169.26-169.26,423.84,85.32,254.58,254.58Z"/>
    </clipPath>
  </defs>
  <g id="Concha">
    <g class="st5">
      <path class="st4" d="M729.99,129.74c-10.88,10.65-25.77,17.22-42.2,17.22-25.83,0-47.86-16.23-56.47-39.04-9.29,5.83-20.27,9.22-32.04,9.22-23.54,0-43.92-13.49-53.87-33.15-9.52,6.28-20.92,9.94-33.17,9.94-33.33,0-60.35-27.02-60.35-60.35s27.02-60.35,60.35-60.35c23.54,0,43.92,13.49,53.87,33.15,9.52-6.28,20.92-9.94,33.17-9.94,25.83,0,47.86,16.23,56.47,39.04,2.89-1.81,5.94-3.39,9.12-4.7-59.52-62.49-143.02-101.36-235.48-101.36-180.78,0-327.32,148.55-327.32,331.8s146.55,331.8,327.32,331.8,327.32-148.55,327.32-331.8c0-46.71-9.54-91.16-26.73-131.48Z"/>
      <path class="st3" d="M453.92,50.48c-.38-.77-.97-1.39-1.69-1.86-7.65-5.01-12.91-13.63-18.47-11.31-5.83,2.43-22.34,16.51-29.63,28.65-7.28,12.14-11.17,19.91-3.89,26.71,7.28,6.8,12.63,7.77,16.03,11.17,3.4,3.4,18.94,15.06,24.77,9.71,5.83-5.34,20.51-22.72,23.91-29.03,3.16-4.37,4.02-7.03,0-13.34-3.51-5.51-7.29-13.13-11.04-20.71Z"/>
      <path class="st3" d="M353.64-59.52c3.72-11.54,11.91-24.19,39.08-27.17,27.17-2.98,84.87.37,105.71,1.49,20.84,1.12,57.32,10.79,67,17.49,9.68,6.7,40.57,26.06,48.02,29.03,7.44,2.98,23.08,21.59,12.28,27.17-10.79-.74-16.38,2.61-23.82,11.17s-15.82.85-21.22-5.58c-7.35-8.77-36.48-31.64-80.4-45.41,0,0-39.17-8.1-82.26-10.05-21.67-.37-66.63,10.42-64.4,1.86Z"/>
      <path class="st3" d="M654,136.62c4.83,4.15-35.21,15.3-40.64,15.3s-10.87-3.17-16.76-11.33c-5.89-8.15-10.75-20.91-13.47-25.44-1.13-1.88,18.17,4.95,33.38-2.2,4.19-1.97,13.49-8.65,14.81-5.02.93,2.55,1.94,5.23,2.31,6.13,3.68,8.99,11.97,15.34,20.37,22.57Z"/>
      <path class="st3" d="M483.05,87.43c-1.39-.82-3.15-.48-4.14.79-8.69,11.13-21.48,30.88-23.44,35.96-2.1,5.45,5.25,21.94,10.8,27.73,5.55,5.79,28.18,23.82,32.37,30.1,4.19,6.29,17.6,23.89,26.82,15.09,9.22-8.8,36.46-31.01,45.26-34.79,8.8-3.77,8.38-24.73-2.51-29.34-10.9-4.61-30.46-36.81-34.12-41.93-2.38-3.33-18.1,2.85-27.41,2.85-8.24,0-18.62-3.53-23.63-6.47Z"/>
      <path class="st3" d="M713.46,142.79c-.23.11-.36.35-.33.6.64,5.39,5.36,10.22,3.35,24.83-2.07,14.99-1.03,43.93,7.75,53.24,8.79,9.3,32.56,7.75,36.7-6.2,4.13-13.95-6.2-31.01-5.69-38.25.52-7.24-4.5-40.39-10.19-50.72-5.63-10.23-20.09,10.67-31.6,16.5Z"/>
      <path class="st3" d="M676.86,156.64c-10.1,1.01-45.95,18.68-47.97,21.21s2.52,14.64,7.57,22.22c5.05,7.57,14.66,32.89,16.16,43.46,1.51,10.57,13.63,23.69,24.23,20.16,10.6-3.53,33.83-13.63,35.34-26.25-3.94-14.14-13.13-84.82-35.34-80.78Z"/>
      <path class="st3" d="M396.36-42.77c-3.01-2.71-22.65-13.77-36.76.33-14.11,14.11-15.49,36.24-7.19,42.88,8.3,6.64,33.47-1.38,32.92-14.11-.55-12.73,17.67-25.3,11.03-29.11Z"/>
      <path class="st3" d="M359.71,75.49c-8.06-2.22-32.24-4.64-33.58-23.98,0-15.31,7.25-19.61,3.76-27.67-3.49-8.06-2.96-18.27,11.82-16.66,14.78,1.61,44.87,3.76,53.46,9.13,8.6,5.37,3.76,30.09-5.1,38.96-8.87,8.87-8.87,23.25-30.36,20.22Z"/>
      <path class="st3" d="M320.03-52.94c-10.03-5.72-17.2-27.22-81.23,26.29-64.03,53.51-55.9,68.8-69.76,83.14-13.86,14.33-34.4,38.22-15.29,42.52,11.95.48,10.99-21.02,43.48-30.1,32.49-9.08,93.17-3.82,102.73-9.56,9.56-5.73,31.06-45.39,13.38-56.38-18.63-8.12-83.62,23.12-93.65,33.06-14.81,8.99-22.93,8.21-20.07,0,2.87-8.21,40.61-38.29,62.59-38.06s64.98-3.12,67.85-7.9c2.87-4.78,7.17-28.7-10.03-43.02Z"/>
      <path class="st3" d="M552.49,253.77c-3.41-6.81-5.96-20.11,0-26.45,5.96-6.34,34.07-30.19,42.16-31.04,8.09-.85,12.35,6.88,17.46,14.09,5.11,7.21,36.2,69.81,35.77,102.17s-3.41,50.68-3.83,78.36c-6.81,16.18-18.74,40.46-31.09,37.48-8.94-2.98-8.09-35.77-10.65-50.25-2.56-14.48-40.03-109.87-49.83-124.35Z"/>
      <path class="st3" d="M564.33,376.34c-4.9.75-18.47-5.65-16.59,13.19,1.88,18.85,7.54,58.8,23.37,64.08,15.83,5.28,31.29-4.15,29.4-12.82s-21.13-77.27-26.4-76.52-9.79,12.06-9.79,12.06Z"/>
      <path class="st3" d="M487.05,402.72c-4.15-5.28-7.92-11.69,4.15-19.6,12.06-7.92,21.86-21.11,28.65-12.44,6.78,8.67,25.25,42.97,19.98,75.01-6.03,16.27-20.35,8.29-26.39,0-6.03-8.29-26.39-42.97-26.39-42.97Z"/>
      <path class="st3" d="M539.07,496.96c-4.9-12.06,1.88-33.55,16.96-38.45,15.08-4.9,31.29-1.51,35.81,2.26s7.16,15.83-.75,24.12c-7.92,8.29-23.75,20.35-33.55,21.11s-18.47-9.05-18.47-9.05Z"/>
      <path class="st3" d="M756.94,240.26c-11.31,3.02-28.65,6.03-29.4,30.53-.69,22.51-6.79,116.73-11.87,150.4-.38,2.53,2.65,4.09,4.49,2.31,14.72-14.25,28.11-36.9,36.79-59.24,9.8-25.25,6.55-125.76,0-124.01Z"/>
      <path class="st3" d="M670.3,323.11c-.04-9.35,1.97-20.36,9.31-24.7,7.34-4.34,18.69-16.02,24.7-10.01,6.01,6.01,6.34,17.02,5.67,34.72-.67,17.69-2.67,56.42-3.34,66.1s-15.36,33.05-26.04,41.73c-10.68,8.68-23.37-1-19.7-15.36,3.67-14.35,9.75-65.1,9.38-92.47Z"/>
      <path class="st3" d="M697.78,430.71c7.25-2.12,15.25-10.28,12.46,8.16s-29.69,42.91-47.82,39.89c4.23-8.46,14.2-16.67,13-23.6-1.21-6.93,13-19.32,22.36-24.46Z"/>
      <path class="st3" d="M641.58,463.34c-4.45-4.45-32.05-3.12-24.04,22.26,8.01,6.23-2.23,7.12-10.68,6.68-8.46-.45-40.51,4.45-28.04,34.72,10.24,16.47,48.96,9.79,62.76-8.46,13.8-18.25,17.36-33.38,0-55.19Z"/>
      <path class="st3" d="M558.79,569.72c-19.59,8.01-34.72,16.47-50.3,9.79-15.58-6.68-31.31-28.04-25.45-33.38,5.86-5.34,37.02-18.69,48.15-13.35,11.13,5.34,20.52,11.57,35.63,9.79,15.11-1.78,35.98-8.01,29.33,10.68-20.18,9.35-37.37,16.47-37.37,16.47Z"/>
      <path class="st3" d="M515.1,498.88c1.13,9.38-9.03,28.56-22.57,26.68-13.54-1.88-24.07-13.16-20.69-30.46,3.38-17.3,42.5-16.5,43.25,3.79Z"/>
      <path class="st3" d="M433.11,518.78c-8.65-9.03,7.9-28.16,17.3-21.04,9.4,7.12,18.8,24.74,11.28,33.8-7.52,9.06-22.19-1.85-28.58-12.76Z"/>
      <path class="st3" d="M439.47,544.19c5.03,4.36,3.52,15.09-6.03,19.61-9.55,4.53-26.82-6.87-23.13-16.93,3.69-10.06,19.28-10.23,29.17-2.68Z"/>
      <path class="st3" d="M469.64,567.32c-6.2-4.36-30-4.66-31.01-2.5-1.01,2.16-1.9,2.83,4.5,10.38,6.4,7.54,10.92,16.93,14.28,18.61s25.31,2.35,30.17-8.21c2.68-6.45-17.94-18.27-17.94-18.27Z"/>
      <path class="st3" d="M438.13,593.02c1.31-.56,1.81-2.18,1.05-3.39-4.76-7.58-17.81-21-26.53-19.62-9.14,1.44-19.97,7.95-28.37,17.61-.58.66-.37,1.74.43,2.11,9.37,4.29,24.54,5.77,29.45,5.77,4.51,0,17.96.13,23.97-2.46Z"/>
      <path class="st3" d="M383.95,549.22c4.73,1.51,12.27,3.02,14.12,6.54,1.84,3.52-1.55,9.72-7.06,15.25-5.51,5.53-11.04,12.91-22.61,14.08-11.57,1.17-21.96-6.54-21.79-9.89s9.55-10.39,10.56-14.08c1.01-3.69-.17-17.27,3.69-17.43,3.86-.17,17.78,3.96,23.09,5.53Z"/>
      <path class="st3" d="M308.89,536.48c-16.09.17-52.47,1.68-52.97,5.53s18.44,20.95,34.7,27.66c16.26,6.7,43.25,5.65,52.13-5.22,8.38-10.03-1.17-28.47-33.86-27.97Z"/>
      <path class="st3" d="M386.43,499.7c8.41,4.45,21.26,15.83,23.37,23,2.11,7.17.13,14.59-5.06,17.31s-16.57,1.7-26.47-1.13c-9.89-2.83-22.01-13.47-28.69-14.7-6.68-1.24-35.62-3.55-45.51-27.01-9.89-23.45-6.43-46.21,4.95-34.83,12.86,8.66,33.64,13.36,43.78,19.79,10.14,6.43,22.3,9.53,33.64,17.56Z"/>
      <path class="st3" d="M242.47,472c10.64-5.94,28.94-14.59,33.89-8.16s3.22,11.87,5.69,17.31,18.8,25.72,14.84,29.68c-3.96,3.96-31.41,7.17-37.6,12.12-6.18,4.95-15.83,4.7-19.05,10.88-11.13-2.97-40.56-23.99-37.6-31.66,2.97-7.67,39.82-30.18,39.82-30.18Z"/>
      <path class="st3" d="M228.87,386.41c9.89-3.71,41.8-8.66,51.45.49,9.65,9.15,19.29,19.54,14.84,39.58-4.7,15.58-30.67,8.66-42.3,13.11-11.63,4.45-26.96,4.7-48.73,25.72-14.1,14.59-23.99,6.68-31.17,1.73-7.17-4.95-17.81-20.28-12.12-29.68,3.56-5.87,14.61-22.12,31.66-34.38,10.23-7.36,23.19-10.91,36.36-16.57Z"/>
      <path class="st3" d="M318.36,414.15c5.73-7.11,12.44-14.81,21.92-9.87s32.58,16.39,34.75,21.92,20.93,21.33,27.45,30.41,25.67,14.81,23.1,28.04c-2.57,13.23-15.01,17.05-22.31,15.83-7.31-1.22-21.49-21.75-31.18-26.79-9.69-5.04-54.12-26.56-59.85-34.26s-2.32-16.56,6.12-25.27Z"/>
      <path class="st3" d="M409.19,401.9c5.53.2,17.97,12.44,25.87,22.31,7.9,9.87,27.95,33.77,30.17,45.02,2.21,11.26-10.23,22.31-22.47,12.64-12.24-9.68-23.69-26.66-33.57-34.36-9.87-7.7-24.68-19.35-22.51-28.83,2.17-9.48,12.04-17.18,22.51-16.78Z"/>
      <path class="st3" d="M447.56,386.7c4.47-.2,5.07-2.37,11.19,6.12,6.12,8.49,28.04,34.95,36.73,60.03s-6.52,26.46-11.45,23.5c-4.94-2.96-23.69-33.77-27.84-42.45-4.15-8.69-21.52-28.2-24.29-31.18-2.76-2.98,10.4-14.82,15.67-16.01Z"/>
      <path class="st3" d="M285.04,343.19c0-10.99-1.22-22.28,6.41-23.5s50.06,24.72,54.63,28.08c4.58,3.36,36.63,24.72,36.63,31.74s-19.53,22.59-33.27,16.79-28.21-11.29-40.05-19.84c-11.84-6.1-28.32,1.53-24.35-33.27Z"/>
      <path class="st3" d="M204.16,319.65c-22.59,11.33-73.86,47.96-72.95,71.16,5.19,18.01,16.79,30.22,21.06,32.96,5.19-14.04,17.4-42.73,46.7-56.16,29.3-13.43,65.32-6.41,69.28-13.73,3.97-7.33-1.22-42.12-11.6-45.48-10.38-3.36-52.5,11.25-52.5,11.25Z"/>
      <path class="st3" d="M266.58,250.41c-7.94-9.28-50.07-25.83-88.66-15.53-38.59,10.29-67.54,36.66-71.08,56.93-3.54,20.26,6.75,50.82,18.33,61.11,10.61-19.3,36.99-49.21,65.61-58.21,28.62-9.01,46.96-10.61,67.54-5.79,9.97,3.36,11.28-.64,11.27-4.5s.42-28.43-3.01-34Z"/>
      <path class="st3" d="M289.86,259.32c1.98-7.11-.45-13.83,19.54-7.51,19.99,6.32,66.23,29.64,89.95,63.64,23.72,33.99,17.79,34.39,14.62,40.71-3.16,6.32-15.02,13.44-25.3,4.35-10.28-9.09-47.43-42.69-57.31-47.04-9.88-4.35-30.04-10.67-39.92-9.49-9.09,1.19-1.58-44.66-1.58-44.66Z"/>
      <path class="st3" d="M103.3,202.01c-4.74,5.53-18.97,47.43,3.56,58.89,9.49,1.19,8.3-15.1,32.02-29.29,23.72-14.19,65.61-22.49,122.92-10.63,48.62,10.5,61.35,17.71,74.94,10.63,13.6-7.08,29.01-30.4,12.01-44.63-17-14.23-67.59-31.62-112.65-33.6-45.06-1.98-98.62,7.51-132.81,48.62Z"/>
      <path class="st3" d="M372.56,114.3c-6.04-11.24-45.16-28.72-77.21-32.88-32.05-4.16-97.81-15.82-146.09,29.97-45.97,43.59-41.47,52.85-42.87,73.75-.08,1.27,1.32,2.07,2.39,1.37,9-5.84,7.49-3.74,28.56-21.96,24.14-17.9,93.9-35.69,130.11-28.61,0,0,49.97-4.45,69.92,19.48,6.75,7.36,23.63,12.27,21.17,2.45-2.45-9.82-1.14-21.17,2.19-23.63,3.33-2.45,12.61-7.68,11.81-19.95Z"/>
      <path class="st3" d="M357.45,255.4c-5.76-8.77-6.01-14.53,5.01-19.04,11.02-4.51,22.55-9.27,25.05-22.04,2-3.76,1.5-5.76,9.27,1.5,7.77,7.26,56.86,56.86,72.4,78.66,15.53,21.79,33.57,41.83,25.8,53.36-7.77,11.52-29.56,23.23-34.82,19.26-5.26-3.98-43.09-56.33-55.61-67.6-12.53-11.27-47.09-44.09-47.09-44.09Z"/>
      <path class="st3" d="M402.08,193.78c-4.38-8.86,3.96-53.73,34.07-47.8,18.98,6.81,53.1,38.94,79.85,78.36,26.75,39.43,53.49,109.52,49.37,117.79-4.12,8.27-40.09,13.14-49.37,0-9.27-13.14-45.29-75.21-58.92-92.85-13.63-17.64-51.11-48.6-55-55.51Z"/>
    </g>
  </g>
  <g id="Layer_3">
    <g>
      <path class="st2" d="M475.6,765.41c0-10.82-4.33-18.03-10.09-20.19v48.16c0,13.41,1.88,23.07,1.88,25.96,0,1.3-1.3,2.16-2.74,2.45-3.75.72-10.38,1.44-19.18,1.44-9.23,0-18.17-.87-20.62-1.44-1.3-.29-2.02-1.3-2.02-3.03,0-2.31,1.59-15.43,1.59-24.8v-39.22c0-9.37-1.3-17.02-3.75-21.34,1.73-6.06,7.35-10.82,22.78-10.82h21.92c26.53,0,45.57,11.68,45.57,32.3,0,25.67-18.02,33.89-34.75,33.89-3.89,0-6.92-1.3-8.65-3.32,4.04-3.03,8.07-10.38,8.07-20.04Z"/>
      <path class="st2" d="M598.17,768.01v30.57c0,6.06,2.16,10.96,3.46,11.39.72.43,1.15,1.44,1.15,2.45,0,7.5-12.83,10.81-18.02,10.81-11.54,0-16.01-3.46-19.47-9.23-3.75,5.91-14.85,9.23-26.68,9.23-14.42,0-25.96-5.34-25.96-17.3s8.65-17.74,17.74-20.76c8.51-2.88,17.88-5.05,29.85-5.05,0-20.48-3.32-29.85-7.21-29.85-3.6,0-5.34,3.46-5.34,10.24,0,5.05,1.3,9.95,2.6,12.11-3.32,3.32-12.11,6.06-20.04,6.06s-13.99-5.19-13.99-15.57c0-16.73,20.77-26.39,42.97-26.39s38.93,8.8,38.93,31.29ZM554.19,809.54c2.31,0,5.19-3.61,6.06-6.92v-14.13c-5.62,0-10.96,5.91-10.96,11.25,0,6.34,2.16,9.81,4.9,9.81Z"/>
      <path class="st2" d="M672.58,738.16c15.43,0,26.53,11.39,26.53,24.51v37.35c0,11.68,1.44,15.29,1.44,17.74,0,1.87-.72,3.32-1.87,3.75-4.04,1.44-11.1,1.73-18.89,1.73s-14.56-.87-17.16-1.59c-1.01-.29-2.02-1.01-2.02-2.74,0-2.45.58-8.36.58-10.81v-35.04c0-6.2-2.31-11.25-6.92-11.25-1.44,0-2.6.43-3.75,1.3v35.91c0,8.8,1.3,16.29,1.3,19.18,0,1.59-1.88,3.17-2.74,3.46-3.89,1.3-10.96,1.59-18.02,1.59-5.05,0-12.4-.29-16.58-1.44-1.87-.58-3.03-1.44-3.03-3.32,0-2.31,1.15-5.77,1.15-12.11v-41.67c0-6.06-2.45-9.81-4.76-11.97,0-5.34,10.96-11.68,19.9-11.68s15.57,3.46,18.89,9.66c4.61-7.5,14.42-12.55,25.96-12.55Z"/>
      <path class="st2" d="M124.2,632.53c0-33.31,25.24-50.76,50.76-50.76,22.93,0,36.48,9.23,36.48,24.08,0,11.1-7.93,18.02-17.74,18.02-5.62,0-10.82-1.73-12.98-3.17.43-2.16.58-5.77.58-7.79,0-4.18-1.59-8.36-6.06-8.36-4.9,0-9.95,10.96-9.95,25.81,0,20.48,4.18,32.16,9.37,32.16,3.61,0,6.34-4.04,6.34-7.35,0-3.03-.72-5.05-1.44-6.78,2.6-1.73,8.65-4.61,14.85-4.61,7.35,0,17.74,5.19,17.74,14.71,0,15.29-17.59,26.82-39.08,26.82-31.15,0-48.88-19.61-48.88-52.78Z"/>
      <path class="st2" d="M258.31,685.31c-23.07,0-44.99-14.42-44.99-42.83s25.38-43.69,46.72-43.69c27.54,0,44.99,14.42,44.99,41.24,0,29.56-23.79,45.28-46.72,45.28ZM267.1,647.53c0-25.52-5.05-32.16-9.81-32.16-3.32,0-6.06,9.37-6.06,21.92,0,22.64,5.34,31.72,9.81,31.72,3.46,0,6.06-11.1,6.06-21.49Z"/>
      <path class="st2" d="M315.56,631.81c0-7.35-4.47-12.4-7.79-13.84-.14-.29-.29-.72-.29-1.15,0-8.51,10.24-13.84,20.48-13.84,8.08,0,13.56,3.46,16.87,11.25,3.03-7.79,11.54-13.99,20.33-13.99s14.28,4.76,14.28,12.55c0,8.94-4.61,15-9.08,16.58-1.15-2.45-4.76-4.47-8.8-4.47-4.33,0-8.07,4.61-8.07,9.66v31.29c0,5.19,1.87,12.55,1.87,15,0,1.59-1.3,3.32-2.31,3.61-2.88.72-11.1.87-18.89.87-8.8,0-16.44-.72-18.46-1.73-.72-.43-1.44-1.44-1.44-3.17,0-2.45,1.3-11.1,1.3-17.88v-30.71Z"/>
      <path class="st2" d="M465.09,630.08v30.57c0,6.06,2.16,10.96,3.46,11.39.72.43,1.15,1.44,1.15,2.45,0,7.5-12.83,10.81-18.02,10.81-11.54,0-16.01-3.46-19.47-9.23-3.75,5.91-14.85,9.23-26.68,9.23-14.42,0-25.96-5.34-25.96-17.3s8.65-17.74,17.74-20.76c8.51-2.88,17.88-5.05,29.85-5.05,0-20.48-3.32-29.85-7.21-29.85-3.6,0-5.34,3.46-5.34,10.24,0,5.05,1.3,9.95,2.6,12.11-3.32,3.32-12.11,6.06-20.04,6.06s-13.99-5.19-13.99-15.57c0-16.73,20.77-26.39,42.97-26.39s38.93,8.8,38.93,31.29ZM421.11,671.61c2.31,0,5.19-3.61,6.06-6.92v-14.13c-5.62,0-10.96,5.91-10.96,11.25,0,6.34,2.16,9.81,4.9,9.81Z"/>
      <path class="st2" d="M485.86,684.59c-5.48-.58-11.39-1.3-11.39-7.21,0-2.74,2.31-6.63,3.89-8.65,2.45-3.17,22.06-33.31,29.27-43.55-11.25,0-18.17,5.19-18.6,12.98-1.01,1.15-3.17,2.02-5.48,2.02-4.61,0-10.24-10.67-10.24-22.78,0-9.81,6.63-16.44,11.68-17.16,4.18-.58,14.28-1.44,24.8-1.44,9.23,0,19.76.87,25.09,1.44,7.93.87,11.1,5.62,11.1,12.4,0,3.89-1.01,8.08-2.02,9.81-4.04,7.07-26.68,37.2-32.73,43.55,9.66-.58,17.59-3.03,19.32-14.13,2.02-.87,4.04-1.3,5.77-1.3,7.07,0,10.96,6.78,10.96,14.71,0,11.68-8.8,18.75-17.74,19.32-4.76.29-16.15.72-23.07.72-4.61,0-16.29-.29-20.62-.72Z"/>
      <path class="st2" d="M595.6,685.31c-23.07,0-44.99-14.42-44.99-42.83s25.38-43.69,46.72-43.69c27.54,0,44.99,14.42,44.99,41.24,0,29.56-23.79,45.28-46.72,45.28ZM622.71,583.94c-5.91,5.77-17.16,10.24-25.81,10.96-6.63,0-13.7-2.31-16.29-5.91,4.04-10.38,15.29-17.3,27.69-19.03,8.22,0,14.42,4.47,14.42,13.99ZM604.4,647.53c0-25.52-5.05-32.16-9.81-32.16-3.32,0-6.06,9.37-6.06,21.92,0,22.64,5.34,31.72,9.81,31.72,3.46,0,6.06-11.1,6.06-21.49Z"/>
      <path class="st2" d="M711.83,600.23c15.43,0,26.53,11.39,26.53,24.51v37.35c0,11.68,1.44,15.29,1.44,17.74,0,1.87-.72,3.32-1.87,3.75-4.04,1.44-11.1,1.73-18.89,1.73s-14.56-.87-17.16-1.59c-1.01-.29-2.02-1.01-2.02-2.74,0-2.45.58-8.36.58-10.81v-35.04c0-6.2-2.31-11.25-6.92-11.25-1.44,0-2.6.43-3.75,1.3v35.91c0,8.8,1.3,16.29,1.3,19.18,0,1.59-1.88,3.17-2.74,3.46-3.89,1.3-10.96,1.59-18.02,1.59-5.05,0-12.4-.29-16.58-1.44-1.87-.58-3.03-1.44-3.03-3.32,0-2.31,1.15-5.77,1.15-12.11v-41.67c0-6.06-2.45-9.81-4.76-11.97,0-5.34,10.96-11.68,19.9-11.68s15.57,3.46,18.89,9.66c4.61-7.5,14.42-12.55,25.96-12.55Z"/>
    </g>
    <g>
      <path class="st1" d="M231.71,699.49c18.15,0,28.38,5.94,32.5,11.05-2.31,8.74-4.95,18.97-4.95,40.09v46.36c0,4.45,1.49,8.08,3.46,10.06.5.5.83,1.65.83,2.97,0,6.1-9.9,13.2-21.61,13.2-9.9,0-18.81-4.45-22.27-9.9-5.12,5.77-14.35,9.9-26.23,9.9-21.61,0-36.13-20.29-36.13-47.35,0-32.01,19.63-51.64,44.55-51.64,6.1,0,12.21,2.15,14.02,3.96v-3.79c0-3.3-3.3-9.07-7.09-11.05,0-7.75,11.71-13.86,22.93-13.86ZM215.87,752.95c-.33-6.27-2.64-9.73-6.44-9.73-4.62,0-8.74,12.04-8.74,26.07,0,28.05,4.12,33.16,10.56,33.16,2.31,0,3.63-.83,4.62-2.31v-47.19Z"/>
      <path class="st1" d="M365.19,772.09c0,5.11-10.23,8.25-22.93,8.25-9.9,0-21.61-1.15-26.89-2.14.66,18.15,5.61,30.36,10.89,30.36,3.63,0,4.95-3.63,4.95-8.08,0-2.8-.49-5.28-1.15-7.75,2.47-2.14,6.43-2.97,9.73-2.97,9.24,0,18.31,7.26,21.28,15.84-6.6,11.05-19.96,17.65-41.08,17.65-28.54,0-48.51-15.84-48.51-47.35s20.13-51.64,50.65-51.64c25.74,0,43.06,11.71,43.06,47.85ZM314.86,768.29c5.61,0,10.23-.83,13.53-2.14,0-16.66-2.97-26.4-6.93-26.4-4.29,0-6.6,12.37-6.6,28.54Z"/>
    </g>
  </g>
</svg>