<?xml version="1.0" encoding="UTF-8"?>
<svg id="Layer_3" data-name="Layer 3" xmlns="http://www.w3.org/2000/svg" viewBox="0 0 209.71 91.05">
  <defs>
    <style>
      .cls-1 {
        fill: #d35b30;
      }

      .cls-2 {
        stroke-width: .5px;
      }

      .cls-2, .cls-3 {
        fill: none;
        stroke: #cc2229;
        stroke-miterlimit: 10;
      }

      .cls-4 {
        fill: #00acec;
      }

      .cls-5 {
        fill: #272525;
      }
    </style>
  </defs>
  <line class="cls-2" x1="36.04" y1="6.75" x2="176.06" y2="6.75"/>
  <line class="cls-2" x1="35.02" y1="80.63" x2="175.04" y2="80.63"/>
  <g>
    <path class="cls-5" d="M86.88,56.66V6.88h-11.22l-31.32,48.04v8.77h33.36v16.93h9.18v-16.93h8.97v-7.04h-8.97ZM77.8,56.66h-25.81l25.81-40.6v40.6Z"/>
    <path class="cls-4" d="M98.21,56.66h-2.35v7.04h2.35v-7.04Z"/>
  </g>
  <g>
    <path class="cls-1" d="M152.2,55.64h-2.35v7.75h1.43l.92-7.75Z"/>
    <path class="cls-5" d="M143.53,55.64V13.51h-9.59l-30.5,41.72v8.16h31.52v17.24h8.57v-17.24h6.32v-7.75h-6.32ZM134.96,38.7v16.93h-22.75c7.24-10,20.3-27.95,22.95-33.15-.1,4.39-.2,11.02-.2,16.22Z"/>
  </g>
  <line class="cls-3" x1="71.72" y1="9.03" x2="43.71" y2="51.35"/>
  <line class="cls-3" x1="131.17" y1="13.51" x2="103.44" y2="51.35"/>
</svg>