<?xml version="1.0" encoding="UTF-8"?>
<svg id="letter" xmlns="http://www.w3.org/2000/svg" viewBox="0 0 209.52 90.72">
  <defs>
    <style>
      .cls-1 {
        fill: #f15a29;
      }

      .cls-2 {
        fill: #231f20;
      }

      .cls-3 {
        fill: #00aeef;
      }
    </style>
  </defs>
  <g>
    <path class="cls-3" d="M76.33,11.87l-8.98,3.77v9.37h8.98v-13.14Z"/>
    <path class="cls-2" d="M83.37,70.73c-6.22,0-7.04-2.35-7.04-8.57v-30.3h11.53v-6.22h-11.53v-.63h-8.98v.63h-10.1v6.22h10.1v33.87c0,8.57,4.28,11.93,12.55,11.93,2.75,0,5.41-.2,8.26-.61v-6.83c-1.73.31-3.16.51-4.79.51Z"/>
  </g>
  <g>
    <path class="cls-1" d="M140.84,9.93h-8.88v13.76h8.88v-13.76Z"/>
    <path class="cls-2" d="M152.26,32.48v-7.24h-11.42v-1.54h-8.88v1.54h-8.98v7.24h8.98v32.44c0,8.57,3.47,12.75,11.53,12.75,2.55,0,5.61-.1,7.75-.92v-6.73c-1.43.31-3.26.41-4.49.41-4.69,0-5.92-2.55-5.92-7.65v-30.3h11.42Z"/>
  </g>
</svg>