<?xml version="1.0" encoding="UTF-8"?>
<svg id="letter" xmlns="http://www.w3.org/2000/svg" viewBox="0 0 209.52 90.72">
  <defs>
    <style>
      .cls-1 {
        fill: #f15a29;
      }

      .cls-2 {
        fill: #00aeef;
      }

      .cls-3 {
        fill: none;
        stroke: #ed1c24;
        stroke-miterlimit: 10;
        stroke-width: .5px;
      }
    </style>
  </defs>
  <path class="cls-1" d="M126.96,19.01c6.43,24.28,10.1,38.15,11.02,43.45h.1c.92-4.79,4.59-17.75,11.93-43.45h8.77c8.06,29.28,10.51,37.74,11.32,42.43h.1c1.33-5.51,3.37-13.26,11.42-42.43h9.08l-15.91,51.72h-9.69c-5-18.87-10-36.31-11.12-41.92h-.1c-.92,5.61-5.51,21.42-11.32,41.92h-10l-15-51.72h9.38Z"/>
  <path class="cls-2" d="M89.46,70.76h-8.87l-14.38-42.64-14.69,42.64h-9.18L24.08,19.25h10l13.26,42.23,14.18-42.23h10.3l13.87,41.72,13.16-41.72h8.98l-18.36,51.51Z"/>
  <line class="cls-3" x1="34.06" y1="15.54" x2="61.48" y2="15.54"/>
  <line class="cls-3" x1="127.39" y1="15.52" x2="149.22" y2="15.52"/>
  <line class="cls-3" x1="142.48" y1="73.02" x2="164.71" y2="73.02"/>
  <line class="cls-3" x1="51.62" y1="73.02" x2="79.61" y2="73.02"/>
</svg>