<?xml version="1.0" encoding="UTF-8"?>
<svg xmlns="http://www.w3.org/2000/svg" viewBox="0 0 209.52 90.72">
  <defs>
    <style>
      .cls-1 {
        fill: #f15a29;
      }

      .cls-2 {
        isolation: isolate;
      }

      .cls-3 {
        fill: #00aeef;
      }

      .cls-4 {
        mix-blend-mode: multiply;
      }
    </style>
  </defs>
  <g class="cls-2">
    <g id="letter">
      <path class="cls-1" d="M149.88,56.01c1.43,5.61,5.61,8.98,12.65,8.98,7.55,0,10.51-3.26,10.51-7.96s-2.35-7.14-12.24-9.49c-14.79-3.57-17.85-8.16-17.85-15.2s5.41-14.48,18.67-14.48,18.87,7.75,19.48,14.89h-8.57c-.82-3.26-3.37-7.96-11.22-7.96-7.24,0-9.49,3.47-9.49,6.83,0,3.88,2.14,5.81,11.63,8.06,15.71,3.77,18.87,8.98,18.87,16.63,0,9.08-7.24,15.71-20.09,15.71s-19.99-6.73-21.32-16.01h8.98Z"/>
      <path class="cls-1" d="M94.4,56.01c1.43,5.61,5.61,8.98,12.65,8.98,7.55,0,10.51-3.26,10.51-7.96s-2.35-7.14-12.24-9.49c-14.79-3.57-17.85-8.16-17.85-15.2s5.41-14.48,18.67-14.48,18.87,7.75,19.48,14.89h-8.57c-.82-3.26-3.37-7.96-11.22-7.96-7.24,0-9.49,3.47-9.49,6.83,0,3.88,2.14,5.81,11.63,8.06,15.71,3.77,18.87,8.98,18.87,16.63,0,9.08-7.24,15.71-20.09,15.71s-19.99-6.73-21.32-16.01h8.98Z"/>
      <g class="cls-4">
        <path class="cls-3" d="M161.16,71.92c-10.92,0-20.09-4.28-20.09-16.73h8.98c.41,7.14,4.49,10.51,11.53,10.51,5.41,0,11.63-2.65,11.63-8.77,0-5.41-5.1-7.55-11.12-8.98l-4.18-1.02c-7.65-1.84-15.5-5-15.5-14.18,0-10.71,10.51-14.69,19.58-14.69,10.3,0,18.46,4.28,18.87,15.61h-8.87c-.2-6.02-4.18-9.49-10.2-9.49-4.69,0-10.61,2.14-10.61,7.65,0,4.79,4.9,7.04,11.02,8.57l4.08,1.02c8.98,2.24,15.81,5.61,15.81,14.48,0,11.73-10.81,16.01-20.91,16.01Z"/>
      </g>
      <g class="cls-4">
        <path class="cls-3" d="M48.49,72.1c-10.91,0-20.09-4.28-20.09-16.73h8.98c.41,7.14,4.49,10.51,11.53,10.51,5.41,0,11.63-2.65,11.63-8.77,0-5.41-5.1-7.55-11.12-8.98l-4.18-1.02c-7.65-1.84-15.5-5-15.5-14.18,0-10.71,10.51-14.69,19.58-14.69,10.3,0,18.46,4.28,18.87,15.61h-8.88c-.2-6.02-4.18-9.49-10.2-9.49-4.69,0-10.61,2.14-10.61,7.65,0,4.79,4.9,7.04,11.02,8.57l4.08,1.02c8.98,2.24,15.81,5.61,15.81,14.48,0,11.73-10.81,16.01-20.91,16.01Z"/>
      </g>
    </g>
  </g>
</svg>