<?xml version="1.0" encoding="UTF-8"?>
<svg id="letter" xmlns="http://www.w3.org/2000/svg" viewBox="0 0 209.52 90.72">
  <defs>
    <style>
      .cls-1 {
        fill: #f15a29;
      }

      .cls-2 {
        fill: #231f20;
      }

      .cls-3 {
        fill: none;
        stroke: #ef4163;
        stroke-miterlimit: 10;
      }

      .cls-4 {
        fill: #00aeef;
      }
    </style>
  </defs>
  <ellipse class="cls-1" cx="135.03" cy="36.14" rx="20.22" ry="22.14"/>
  <ellipse class="cls-4" cx="73.11" cy="37.24" rx="20.22" ry="22.14"/>
  <path class="cls-2" d="M159.43,58.65c0,16.63-6.83,26.01-23.77,26.01-15.71,0-20.5-8.77-21.42-15.81h9.08c1.53,5.71,6.12,8.67,12.75,8.67,11.73,0,14.59-7.45,14.59-19.28v-4.18c-2.75,5.71-7.45,9.08-16.12,9.08-12.75,0-21.42-10.4-21.42-25.6,0-16.83,9.89-27.13,22.34-27.13,9.89,0,14.08,4.59,15.2,8.06.1-2.35.41-5.81.51-6.83h8.37c0,2.96-.1,10-.1,14.89v32.13ZM136.59,55.48c11.12,0,14.38-7.55,14.38-18.97s-3.06-18.57-14.08-18.57c-9.59,0-14.48,8.06-14.48,19.18s5.71,18.36,14.18,18.36Z"/>
  <path class="cls-2" d="M98.12,31.37v19.07c0,19.79-.92,35.09-24.28,35.09-10.4,0-21.32-3.16-21.32-15.71h8.77c0,7.34,6.12,9.59,12.44,9.59,10.81,0,14.38-6.02,15.2-15.5.2-2.75.2-5.61.2-8.47-3.98,6.12-9.69,9.08-17.04,9.08-15.4,0-22.64-11.73-22.64-25.91s7.55-26.01,22.54-26.01c7.65,0,13.57,3.06,17.44,9.69v-8.77h9.08c-.41,5.92-.41,11.93-.41,17.85ZM74.25,18.82c-11.32,0-15.2,10.4-15.2,20.09s4.08,19.58,15.1,19.58,15.1-10.61,15.1-20.4c0-9.08-4.59-19.28-14.99-19.28Z"/>
  <path class="cls-3" d="M59.79,14s-12.2,8.32-12.72,21.16c-.55,13.57,4.49,26.05,15.62,29.2"/>
  <path class="cls-3" d="M122.9,12.79s-12.2,8.32-12.72,21.16c-.55,13.57,4.49,26.05,15.62,29.2"/>
</svg>