<?xml version="1.0" encoding="UTF-8"?>
<svg id="letter" xmlns="http://www.w3.org/2000/svg" viewBox="0 0 209.52 90.72">
  <defs>
    <style>
      .cls-1 {
        fill: #f15a29;
      }

      .cls-2 {
        fill: #231f20;
      }

      .cls-3 {
        fill: #00aeef;
      }

      .cls-4 {
        fill: none;
        stroke: #ed1c24;
        stroke-miterlimit: 10;
        stroke-width: .5px;
      }
    </style>
  </defs>
  <rect class="cls-3" x="59.95" y="20.88" width="34.88" height="20.2" rx="10.1" ry="10.1"/>
  <rect class="cls-1" x="113.23" y="20.88" width="34.88" height="20.2" rx="10.1" ry="10.1"/>
  <path class="cls-2" d="M117.11,43.76c.1,10.51,5.41,18.05,14.18,18.05,8.16,0,10.81-4.28,12.44-8.06h9.08c-2.04,6.63-7.65,15.5-21.83,15.5-16.22,0-22.85-13.26-22.85-26.52,0-15.4,7.75-27.64,23.46-27.64,16.73,0,22.13,13.36,22.13,24.38,0,1.63,0,2.96-.1,4.28h-36.52ZM144.65,37.53c-.1-8.57-4.39-15.4-13.16-15.4s-13.16,6.32-14.08,15.4h27.24Z"/>
  <path class="cls-2" d="M63.17,44.06v1.02c0,9.49,5.1,18.16,15.5,18.16,7.34,0,12.14-4.49,13.26-11.73h8.57c-2.04,12.14-10.81,17.75-22.54,17.75-16.01,0-23.77-10.71-23.77-26.01s7.75-27.54,24.48-27.54,22.14,13.36,22.14,28.36h-37.64ZM78.37,21.83c-9.49,0-14.18,7.75-15,16.32h28.56c.1-8.47-4.18-16.32-13.57-16.32Z"/>
  <line class="cls-4" x1="98.43" y1="50.55" x2="98.43" y2="44.85"/>
  <line class="cls-4" x1="151.49" y1="52.59" x2="151.49" y2="44.85"/>
</svg>