<?xml version="1.0" encoding="UTF-8"?>
<svg id="Layer_1" data-name="Layer 1" xmlns="http://www.w3.org/2000/svg" viewBox="0 0 209.71 91.05">
  <defs>
    <style>
      .cls-1 {
        fill: #f15a29;
      }

      .cls-2 {
        fill: #00aeef;
      }

      .cls-3 {
        fill: none;
        stroke: #ed1c24;
        stroke-miterlimit: 10;
        stroke-width: .5px;
      }
    </style>
  </defs>
  <path class="cls-1" d="M134.78,81.68V26.32c-3.26,2.36-9.98,5.1-13.63,5.75v-7.11c5.08-1.36,11.44-5.12,15.95-9.41h6.64v66.13h-8.95Z"/>
  <path class="cls-2" d="M104,81.68V18.77c-4.6,4.5-10,7.7-15.9,10.3v-8.4c6.7-2.7,11.8-6.2,17-11.3h7.9v72.3h-9Z"/>
  <g>
    <path class="cls-1" d="M152.2,50.75l-1.05,2.92h-1.29l3.47-9.75h1.59l3.62,9.75h-1.38l-1.08-2.92h-3.89ZM155.76,49.64c-.93-2.56-1.44-3.92-1.65-4.67h-.01c-.24.83-.81,2.47-1.56,4.67h3.22Z"/>
    <path class="cls-1" d="M165.47,51.5c-.3,1.22-1.13,2.34-2.94,2.34-1.95,0-3.17-1.41-3.17-3.68,0-2.01,1.14-3.76,3.26-3.76s2.76,1.46,2.85,2.38h-1.22c-.18-.72-.63-1.35-1.66-1.35-1.26,0-1.97,1.08-1.97,2.69s.69,2.7,1.92,2.7c.89,0,1.41-.47,1.7-1.32h1.22Z"/>
    <path class="cls-1" d="M172.58,51.6c0,.69,0,1.65.01,2.07h-1.19c-.03-.19-.04-.62-.05-1.06-.35.79-1.03,1.23-2.15,1.23-1.2,0-2.35-.6-2.35-2.6v-4.67h1.22v4.41c0,.93.29,1.79,1.47,1.79,1.31,0,1.81-.72,1.81-2.5v-3.7h1.23v5.03Z"/>
    <path class="cls-1" d="M174.68,48.4c0-.61,0-1.26-.01-1.83h1.18c.02.21.05.74.05,1.09.32-.64.94-1.26,2.07-1.26,1.01,0,1.7.51,1.97,1.27.38-.67,1.05-1.27,2.26-1.27s2.24.68,2.24,2.6v4.67h-1.21v-4.52c0-.82-.3-1.69-1.41-1.69s-1.66.87-1.66,2.13v4.08h-1.2v-4.48c0-.91-.26-1.73-1.37-1.73s-1.69.92-1.69,2.28v3.93h-1.22v-5.27Z"/>
    <path class="cls-1" d="M186.52,43.39h1.23v1.53h-1.23v-1.53ZM186.52,46.57h1.23v7.1h-1.23v-7.1Z"/>
    <path class="cls-1" d="M189.84,48.36c0-.62,0-1.24-.01-1.79h1.19c.03.21.05.96.05,1.17.28-.61.86-1.33,2.24-1.33s2.37.81,2.37,2.7v4.57h-1.23v-4.41c0-1.07-.42-1.8-1.5-1.8-1.34,0-1.88,1.02-1.88,2.45v3.76h-1.23v-5.31Z"/>
  </g>
  <g>
    <path class="cls-2" d="M10.25,53.77c-2.69,0-4.06-1.3-4.06-4.08v-6.23h1.37v6.05c0,.73.01,1.48.42,2.12.49.77,1.4,1.09,2.28,1.09,1.04,0,2.05-.46,2.47-1.46.24-.56.25-1.18.25-1.78v-6.02h1.33v6.26c0,2.59-1.46,4.05-4.06,4.05Z"/>
    <path class="cls-2" d="M21.52,53.59v-3.92c0-1.23-.14-2.3-1.64-2.3s-1.95,1.39-1.95,2.69v3.53h-1.23v-5.25c0-.6-.03-1.41-.04-1.82h1.22l.04,1.13c.57-.81,1.29-1.22,2.31-1.22,1.85,0,2.52,1.02,2.52,2.76v4.4h-1.23Z"/>
    <path class="cls-2" d="M24.93,44.71v-1.25h1.37v1.25h-1.37ZM25,53.59v-7.07h1.23v7.07h-1.23Z"/>
    <path class="cls-2" d="M31.72,53.59h-1.29l-2.87-7.07h1.4l2.2,5.88,2.24-5.88h1.26l-2.94,7.07Z"/>
    <path class="cls-2" d="M36.44,50.28v.14c0,1.3.7,2.49,2.13,2.49,1.01,0,1.67-.62,1.82-1.61h1.18c-.28,1.67-1.48,2.44-3.1,2.44-2.2,0-3.26-1.47-3.26-3.57s1.06-3.78,3.36-3.78,3.04,1.83,3.04,3.89h-5.17ZM38.53,47.23c-1.3,0-1.95,1.06-2.06,2.24h3.92c.01-1.16-.57-2.24-1.86-2.24Z"/>
    <path class="cls-2" d="M46.55,47.61c-1.46,0-1.93.83-1.93,2.17v3.81h-1.23v-5c0-.69-.01-1.39-.04-2.07h1.2l.06,1.13c.5-.83,1.19-1.18,2.16-1.18.13,0,.28.01.39.03v1.16c-.18-.03-.41-.06-.6-.06Z"/>
    <path class="cls-2" d="M50.57,53.74c-1.5,0-2.76-.59-2.76-2.3h1.23c.06.98.62,1.44,1.58,1.44.74,0,1.6-.36,1.6-1.21,0-.74-.7-1.04-1.53-1.23l-.57-.14c-1.05-.25-2.13-.69-2.13-1.95,0-1.47,1.44-2.02,2.69-2.02,1.42,0,2.54.59,2.59,2.14h-1.22c-.03-.83-.57-1.3-1.4-1.3-.64,0-1.46.29-1.46,1.05,0,.66.67.97,1.51,1.18l.56.14c1.23.31,2.17.77,2.17,1.99,0,1.61-1.48,2.2-2.87,2.2Z"/>
    <path class="cls-2" d="M65.75,53.59l-5.03-8.78v8.78h-1.19v-10.13h1.77l5.03,8.81v-8.81h1.19v10.13h-1.76Z"/>
    <path class="cls-2" d="M70.74,50.28v.14c0,1.3.7,2.49,2.13,2.49,1.01,0,1.67-.62,1.82-1.61h1.18c-.28,1.67-1.48,2.44-3.1,2.44-2.2,0-3.26-1.47-3.26-3.57s1.06-3.78,3.36-3.78,3.04,1.83,3.04,3.89h-5.17ZM72.83,47.23c-1.3,0-1.95,1.06-2.06,2.24h3.92c.01-1.16-.57-2.24-1.86-2.24Z"/>
    <path class="cls-2" d="M81.92,53.59l-2.03-2.91-2.03,2.91h-1.36l2.73-3.63-2.58-3.45h1.54l1.85,2.69,1.89-2.69h1.36l-2.56,3.45,2.75,3.63h-1.55Z"/>
    <path class="cls-2" d="M86.97,53.66c-1.13,0-1.72-.46-1.72-1.64v-4.65h-1.39v-.85h1.39v-1.37l1.23-.52v1.89h1.58v.85h-1.58v4.16c0,.85.11,1.18.97,1.18.22,0,.42-.03.66-.07v.94c-.39.06-.76.08-1.13.08Z"/>
  </g>
  <line class="cls-3" x1="78.79" y1="9.37" x2="163.49" y2="9.37"/>
  <line class="cls-3" x1="163.49" y1="81.67" x2="78.79" y2="81.67"/>
</svg>