<?xml version="1.0" encoding="UTF-8"?>
<svg xmlns="http://www.w3.org/2000/svg" viewBox="0 0 209.71 91.05">
  <defs>
    <style>
      .cls-1, .cls-2 {
        fill: #f15a29;
      }

      .cls-3 {
        fill: #231f20;
      }

      .cls-4 {
        isolation: isolate;
      }

      .cls-5, .cls-6 {
        fill: #00aeef;
      }

      .cls-6, .cls-2 {
        mix-blend-mode: multiply;
      }

      .cls-7 {
        fill: none;
        stroke: #ed1c24;
        stroke-miterlimit: 10;
        stroke-width: .5px;
      }
    </style>
  </defs>
  <g class="cls-4">
    <g id="Layer_2" data-name="Layer 2">
      <g>
        <g>
          <path class="cls-3" d="M105.67,31.06c.56-1.96.88-3.91.88-5.81,0-13.1-10.3-19.2-21.7-19.2-12.5,0-22.8,7.2-23,21.2h9.5c0-8.4,5.3-13.9,13.2-13.9,7.3,0,12.4,4.9,12.4,12.7,0,1.65-.22,3.18-.61,4.68,2.99-.14,6.33-.49,9.33.33Z"/>
          <path class="cls-5" d="M71.65,72.56c2.19-2.06,8.15-7.66,10.2-9.6,3.8-3.6,7.7-7.6,11.4-11.8,5.65-6.42,10.51-13.38,12.42-20.09-3-.82-6.34-.47-9.33-.33-.32,1.22-.75,2.41-1.29,3.62-4.7,9.95-23.97,27.78-34,36.8,3.57-.12,7.03,1.1,10.6,1.4Z"/>
          <path class="cls-3" d="M71.65,72.56s-9.7-2.2-10.6-1.4v8.7h46.3v-7.3h-35.7Z"/>
        </g>
        <g>
          <path class="cls-3" d="M155.76,31.6s0-.02,0-.03c0-9.23-5.74-18.72-20.49-18.72-13.43,0-20.55,8.41-21.71,19.55h8.61c1.38-8.04,5.13-12.2,13.1-12.2s11.41,5,11.41,11.59c0,.07,0,.14,0,.21,2.83-.61,6.07-.76,9.08-.42Z"/>
          <path class="cls-1" d="M123.82,72.13c1.75-4.92,6.68-10.44,15.55-17.31,12.16-9.39,16.39-13.29,16.39-23.22-3.02-.34-6.25-.19-9.08.42-.06,7.1-2.97,9.7-13.41,17.67-9.73,7.37-15.88,15.06-18.47,22.02,2.88,0,5.75.23,9.02.42Z"/>
          <path class="cls-3" d="M123.82,72.13c.04-.11-5.87-.42-9.02-.42-1.02,2.74-1.35,4.92-1.35,7.61v.55h43.65l1.25-7.73h-34.54Z"/>
        </g>
        <line class="cls-7" x1="175.04" y1="5.86" x2="34.67" y2="5.86"/>
        <line class="cls-7" x1="175.04" y1="79.86" x2="34.67" y2="79.86"/>
        <circle class="cls-6" cx="105.67" cy="76.23" r="4.99"/>
        <circle class="cls-2" cx="156.68" cy="76.23" r="4.99"/>
      </g>
    </g>
  </g>
</svg>