<?xml version="1.0" encoding="UTF-8"?>
<svg id="letter" xmlns="http://www.w3.org/2000/svg" viewBox="0 0 209.52 90.72">
  <defs>
    <style>
      .cls-1 {
        fill: #f15a29;
      }

      .cls-2 {
        fill: #231f20;
      }

      .cls-3 {
        fill: #00aeef;
      }
    </style>
  </defs>
  <g>
    <path class="cls-2" d="M65.76,74.14c-18.05,0-25.4-14.79-25.4-30.91,0-14.69,6.43-29.99,23.36-29.99,8.77,0,14.99,4.18,16.42,13.16h10c-1.22-14.59-12.55-20.81-26.01-20.81-22.44,0-34.07,17.24-34.07,38.15,0,22.14,12.24,37.95,35.4,37.95,4.24,0,8.46-.45,12.64-1.18v-7.73c-4.05.92-8.19,1.36-12.34,1.36Z"/>
    <path class="cls-3" d="M90.75,42.72h-26.93v7.24h17.65v21.93c-1.11.33-2.24.62-3.37.88v7.73c4.26-.74,8.48-1.77,12.66-2.9v-34.89Z"/>
  </g>
  <g>
    <path class="cls-2" d="M140.62,73.93c-16.01,0-22.54-13.67-22.54-28.26,0-15.81,6.53-28.97,22.95-28.97,11.63,0,17.24,5.81,19.69,13.77h9.38c-2.04-12.65-12.34-21.62-28.87-21.62-21.42,0-33.05,16.01-33.05,37.23s10.81,35.7,31.32,35.7c7.68,0,12.94-1.97,16.6-4.62v-9.46c-3.02,3.82-7.89,6.23-15.48,6.23Z"/>
    <path class="cls-1" d="M140.52,50.57h19.99v.82c0,6.25-1.09,12.12-4.41,16.31v9.46c2.46-1.78,4.2-3.87,5.43-5.88.1,5.1.41,8.26.92,9.59h7.24v-38.35h-29.17v8.06Z"/>
  </g>
</svg>