<?xml version="1.0" encoding="UTF-8"?>
<svg id="letter" xmlns="http://www.w3.org/2000/svg" viewBox="0 0 209.52 90.72">
  <defs>
    <style>
      .cls-1 {
        fill: #f15a29;
      }

      .cls-2 {
        fill: #231f20;
      }

      .cls-3 {
        fill: #00aeef;
      }
    </style>
  </defs>
  <rect class="cls-3" x="59.42" y="11.52" width="35.5" height="35.5" rx="12" ry="12"/>
  <rect class="cls-1" x="128.75" y="14.7" width="40.34" height="32.92" rx="12" ry="12"/>
  <path class="cls-2" d="M124.56,11.51h26.93c13.77,0,23.26,7.75,23.26,20.71,0,13.77-10,21.12-23.87,21.12h-16.83v29.17h-9.49V11.51ZM134.04,45.38h16.42c9.69,0,14.59-4.69,14.59-12.96,0-8.67-5.92-12.95-14.28-12.95h-16.73v25.91Z"/>
  <path class="cls-2" d="M90.08,48.72c-3.88,1.43-8.57,1.94-13.36,1.94h-13.57v31.52h-9.59V8.43h22.75c6.33,0,12.85.1,18.36,3.67,6.02,3.88,8.87,10.61,8.87,17.54,0,8.98-5,16.02-13.46,19.08ZM76,15.77h-12.85v27.44h10.1c10.3,0,20.3-1.63,20.3-14.28,0-11.12-8.06-13.16-17.54-13.16Z"/>
</svg>