<?xml version="1.0" encoding="UTF-8"?>
<svg xmlns="http://www.w3.org/2000/svg" viewBox="0 0 209.52 90.72">
  <defs>
    <style>
      .cls-1 {
        fill: #f15a29;
      }

      .cls-2 {
        isolation: isolate;
      }

      .cls-3 {
        fill: #00aeef;
      }

      .cls-4 {
        mix-blend-mode: multiply;
      }
    </style>
  </defs>
  <g class="cls-2">
    <g id="letter">
      <path class="cls-3" d="M43.89,52.47v30.5h-9.59v-30.91L5.85,9.22h11.32l22.44,35.09L61.74,9.22h10.61l-28.46,43.25Z"/>
      <path class="cls-1" d="M99.77,82.59v-26.01c0-.71-.1-1.43-.51-1.94l-24.99-43.05h10.81c6.43,11.53,16.73,29.89,19.99,36.11,3.06-6.12,13.67-24.58,20.3-36.11h10.1l-25.81,43.25c-.2.41-.41.82-.41,1.84v25.91h-9.49Z"/>
      <path class="cls-1" d="M165.33,81.01v-26.01c0-.71-.1-1.43-.51-1.94l-24.99-43.05h10.81c6.43,11.53,16.73,29.89,19.99,36.11,3.06-6.12,13.67-24.58,20.3-36.11h10.1l-25.81,43.25c-.2.41-.41.82-.41,1.84v25.91h-9.49Z"/>
      <g class="cls-4">
        <path class="cls-3" d="M175,50.97v30.5h-9.59v-30.91l-28.46-42.84h11.32l22.44,35.09,22.14-35.09h10.61l-28.46,43.25Z"/>
      </g>
    </g>
  </g>
</svg>