<?xml version="1.0" encoding="UTF-8"?>
<svg id="Layer_3" data-name="Layer 3" xmlns="http://www.w3.org/2000/svg" viewBox="0 0 209.71 91.05">
  <defs>
    <style>
      .cls-1 {
        fill: #d35b30;
      }

      .cls-2 {
        fill: #00acec;
      }
    </style>
  </defs>
  <path class="cls-2" d="M82.49,47.26v35.91h-25.4c-13.16,0-28.97-3.67-28.97-20.71,0-11.22,7.45-17.14,17.34-18.97-6.43-1.33-13.97-4.79-13.97-16.53,0-13.46,13.46-19.07,24.38-19.07,4.49,0,9.08.61,13.57,1.33v7.85c-3.98-1.02-7.85-1.84-11.83-1.84-7.85,0-16.63,3.06-16.63,12.75,0,11.02,12.04,12.44,20.09,12.44h12.34v-16.01h9.08v16.01h13.36v6.83h-13.36ZM73.41,47.36h-12.65c-9.49,0-22.75,1.12-22.75,14.08s14.89,14.28,24.58,14.28h10.81v-28.36Z"/>
  <path class="cls-1" d="M179.71,36.01l-18.15,26.64c-8.45,12.42-14.46,19.38-27.51,19.38s-20.2-9.57-20.2-18.74,5.13-15.63,19.22-22.92c9.1-5.04,14.24-8.36,14.24-14.96,0-4.89-2.96-9.54-8.89-9.54-5.49,0-9.22,3.58-9.22,9.87,0,4.45,3.31,8.37,8.6,13.39l42.66,41.87h-12.13l-38.02-37.43c-5.69-5.49-9.6-10.44-9.6-17.39,0-9.11,6.38-17.16,17.8-17.16,10.52,0,17.13,7.44,17.13,16.29,0,7.88-5.07,12.76-17.73,19.79-12.25,6.35-14.77,11.35-14.77,17.25,0,6.26,4.99,11.76,11.58,11.76,7.94,0,12.43-3.25,21.36-16.71l14.08-21.38h9.53Z"/>
</svg>