<?xml version="1.0" encoding="UTF-8"?>
<svg id="letter" xmlns="http://www.w3.org/2000/svg" viewBox="0 0 209.52 90.72">
  <defs>
    <style>
      .cls-1 {
        fill: #f15a29;
      }

      .cls-2 {
        fill: #231f20;
      }

      .cls-3 {
        fill: #00aeef;
      }
    </style>
  </defs>
  <ellipse class="cls-3" cx="76.88" cy="51.78" rx="16.44" ry="13.66"/>
  <ellipse class="cls-1" cx="132.34" cy="50.5" rx="16.44" ry="13.66"/>
  <g>
    <path class="cls-1" d="M143.02,60.8c.11,3.15.41,5.59.82,6.71h8.57c-.21-1.03-.46-3.65-.61-6.71h-8.78Z"/>
    <path class="cls-2" d="M151.69,56.19v-24.68c0-11.73-7.03-16.94-19.68-16.94-14.9,0-19.28,8.16-20,15.31h8.67c.92-3.98,2.45-8.27,11.02-8.27,9.69,0,11.12,5.51,11.12,10.1v4.39h-8.77c-15.41,0-24.48,5.3-24.48,16.83,0,7.85,5.2,15.81,17.44,15.81,9.98,0,14.16-4.57,16-7.94h-.28.28s0-.01.01-.02c0,0,0,.01,0,.02h8.78c-.07-1.47-.11-3.05-.11-4.61ZM142.92,43.95c0,9.39-1.63,17.75-14.07,17.75-6.43,0-10.1-3.88-10.1-9.28,0-7.24,5.5-10.1,15.81-10.1h8.36v1.63Z"/>
  </g>
  <g>
    <path class="cls-3" d="M88.96,61.08c.14,2.06.51,4.66.88,6.59h7.85c-.39-1.27-.83-3.63-1.16-6.59h-7.57Z"/>
    <path class="cls-2" d="M57.2,30.03h8.77c.35-3.79,1.7-6.2,3.94-7.57-.93-2.12-2.2-3.83-2.48-5.99-5.67,1.9-9.89,6.02-10.23,13.56Z"/>
    <path class="cls-2" d="M96.06,52.57v-18.97c0-13.46-6.43-18.46-19.58-18.46-3.18,0-6.28.41-9.05,1.33.28,2.17,1.55,3.87,2.48,5.99,1.74-1.06,4.01-1.51,6.77-1.51,8.47,0,11.32,4.49,11.32,12.44v3.06c-1.43-.1-3.26-.2-5.1-.2-12.55,0-29.48,1.84-29.48,17.24,0,10.51,8.47,15.3,18.05,15.3,7.18,0,12.74-2,16.97-7.71h-.06.06c.16-.21.32-.42.48-.65,0,.21.03.43.04.65h7.57c-.28-2.5-.47-5.42-.47-8.5ZM73.72,62.77c-5.92,0-11.32-3.37-11.32-9.69,0-10.51,13.06-11.42,21.01-11.42,1.43,0,2.45,0,4.59.2,0,10.4-1.33,20.91-14.28,20.91Z"/>
  </g>
</svg>