<?xml version="1.0" encoding="UTF-8"?>
<svg xmlns="http://www.w3.org/2000/svg" viewBox="0 0 800.2 212.69">
  <defs>
    <style>
      .cls-1 {
        fill: #231f20;
      }

      .cls-2 {
        fill: none;
        stroke: #ed1c24;
        stroke-miterlimit: 10;
        stroke-width: .5px;
      }
    </style>
  </defs>
  <g id="letter">
    <g>
      <path class="cls-1" d="M154.6,129.75V42.67h11.32v78.3h42.76v8.79h-54.08Z"/>
      <path class="cls-1" d="M250.84,130.84c-8.79,0-14.09-3.37-19.15-10.24v32.04h-10.6v-66.37c0-5.66,0-11.56-.36-17.35h10.48l.36,10.48c4.7-7.95,11.32-11.56,20.6-11.56,17.83,0,25.66,14.58,25.66,30.6s-8.67,32.4-26.98,32.4ZM249.75,75.31c-13.49,0-18.19,12.65-18.19,24.21,0,10.96,3.85,23.85,16.98,23.85s18.19-12.53,18.19-24.21c0-10.84-3.98-23.85-16.98-23.85Z"/>
      <path class="cls-1" d="M334.55,129.75v-33.73c0-10.6-1.2-19.87-14.09-19.87s-16.74,10.36-16.74,21.44v32.16h-10.6V42.67h10.6v35.78c4.82-6.87,11.08-10.36,19.63-10.36,16.02,0,21.8,8.79,21.8,23.85v37.82h-10.6Z"/>
      <path class="cls-1" d="M402.84,129.75l-17.47-25.05-17.47,25.05h-11.68l23.49-31.2-22.16-29.63h13.25l15.9,23.13,16.26-23.13h11.68l-22.04,29.63,23.61,31.2h-13.37Z"/>
    </g>
    <g>
      <path class="cls-1" d="M466.17,44.83h11.08v74.32h43.73l-1.57,9.52h-53.24V44.83Z"/>
      <path class="cls-1" d="M532.53,152.63v-70.1c0-5.06,0-10.24-.12-14.94h10.24c.24,2.05.36,5.66.36,9.64,3.37-6.26,9.52-11.08,20-11.08,14.09,0,24.33,11.8,24.33,30.35,0,21.92-11.68,33.61-26.5,33.61-9.88,0-15.06-4.1-17.83-9.03v31.56h-10.48ZM560.24,75.18c-12.65,0-17.71,7.95-17.71,22.89s4.1,23.13,16.86,23.13c11.2,0,17.1-9.15,17.1-24.21,0-13.01-5.9-21.8-16.26-21.8Z"/>
      <path class="cls-1" d="M611.79,40.25v36.38c3.01-5.42,8.67-10.48,19.03-10.48,9.76,0,20.6,5.3,20.6,23.49v39.03h-10.6v-37.22c0-10.36-4.34-16.14-13.25-16.14-10.96,0-15.78,7.23-15.78,20v33.37h-10.6V40.25h10.6Z"/>
      <path class="cls-1" d="M673.1,67.59c8.67,13.61,12.29,19.39,14.45,22.77h.12c2.65-3.85,7.71-11.8,14.94-22.77h11.8l-20.6,29.39,20.84,31.68h-12.17c-7.47-11.93-12.65-20.12-15.06-24.09h-.12c-2.05,3.37-6.99,11.56-14.94,24.09h-11.8l20.48-30.48-19.88-30.6h11.93Z"/>
    </g>
    <g>
      <path class="cls-1" d="M76.5,66.64c.22.24.39.47.51.71.08.16.22.59.4,1.29l.6-.9c.16-.22.35-.43.58-.63s.43-.33.6-.41c.11-.05.23-.07.36-.07.2,0,.35.05.47.16s.17.23.17.38c0,.17-.03.29-.1.36-.13.11-.27.17-.44.17-.1,0-.2-.02-.31-.06-.21-.07-.36-.11-.43-.11-.11,0-.24.06-.39.19-.28.24-.62.69-1.01,1.37l.56,2.35c.09.36.16.58.22.65s.12.11.18.11c.1,0,.21-.05.33-.16.25-.21.46-.48.64-.82l.24.12c-.29.54-.65.98-1.09,1.34-.25.2-.46.3-.64.3-.26,0-.46-.14-.61-.43-.1-.18-.29-.94-.59-2.3-.71,1.23-1.28,2.03-1.71,2.39-.28.23-.55.34-.81.34-.18,0-.35-.07-.5-.2-.11-.1-.16-.23-.16-.4,0-.15.05-.28.15-.38s.22-.15.37-.15.3.07.46.22c.12.1.21.16.27.16.05,0,.13-.04.21-.11.21-.17.51-.55.88-1.12s.61-.99.72-1.24c-.28-1.11-.44-1.69-.46-1.76-.1-.3-.24-.51-.41-.63s-.42-.18-.75-.18c-.1,0-.23,0-.36.01v-.25l1.83-.32Z"/>
      <path class="cls-1" d="M84.47,69.33l-.28.91h-3.54l.28-.91h3.54Z"/>
      <path class="cls-1" d="M89.05,63.11l-1.92,6.64c.83-1.25,1.48-2.08,1.94-2.49s.91-.62,1.33-.62c.22,0,.4.08.55.23s.22.35.22.6c0,.3-.06.67-.19,1.09l-.83,2.86c-.1.35-.16.54-.16.57,0,.06.02.12.06.16s.08.06.13.06c.06,0,.13-.03.21-.09.26-.2.52-.48.77-.83l.21.13c-.15.24-.37.51-.65.8s-.51.49-.71.6-.38.17-.53.17c-.17,0-.31-.05-.41-.16s-.16-.25-.16-.41c0-.2.08-.57.24-1.12l.79-2.73c.1-.34.15-.61.15-.81,0-.09-.03-.16-.09-.22s-.13-.08-.22-.08c-.13,0-.28.05-.45.15-.31.19-.67.55-1.07,1.07-.11.14-.47.71-1.09,1.71-.19.32-.35.67-.47,1.05l-.44,1.4h-1.03l2.25-7.82.24-.85c0-.12-.05-.22-.15-.31s-.22-.14-.36-.14c-.08,0-.21.01-.38.04l-.14.02v-.27l2.37-.4Z"/>
      <path class="cls-1" d="M93.61,70.25c-.03.23-.05.42-.05.57,0,.41.14.75.43,1.04s.64.43,1.05.43c.33,0,.64-.07.95-.2s.75-.43,1.35-.89l.14.2c-1.08,1.07-2.11,1.61-3.09,1.61-.67,0-1.17-.21-1.5-.63s-.51-.88-.51-1.39c0-.68.21-1.37.63-2.08s.95-1.26,1.58-1.66,1.29-.59,1.96-.59c.48,0,.84.1,1.07.29s.35.43.35.7c0,.38-.15.74-.45,1.09-.4.45-.98.82-1.75,1.09-.51.19-1.23.33-2.15.44ZM93.66,69.91c.67-.08,1.22-.21,1.65-.4.56-.25.98-.55,1.26-.9s.42-.68.42-.99c0-.19-.06-.35-.18-.46s-.29-.18-.52-.18c-.46,0-.96.25-1.48.74s-.91,1.22-1.15,2.19Z"/>
      <path class="cls-1" d="M101.38,66.64l-1.35,4.79c-.09.32-.14.52-.14.58,0,.07.02.13.06.18s.09.07.15.07c.07,0,.15-.04.25-.11.26-.21.52-.5.79-.88l.24.16c-.31.47-.67.87-1.09,1.2-.31.24-.61.36-.89.36-.19,0-.34-.06-.46-.17s-.18-.25-.18-.42.06-.45.17-.84l.89-3.06c.15-.5.22-.82.22-.94,0-.1-.04-.18-.11-.25s-.17-.1-.29-.1c-.1,0-.31.02-.62.08v-.27l2.36-.38ZM101.29,63.93c.19,0,.35.07.49.2s.2.29.2.49-.07.35-.2.48-.29.2-.48.2-.35-.07-.48-.2-.2-.29-.2-.48.07-.35.2-.49.29-.2.49-.2Z"/>
      <path class="cls-1" d="M109.34,67.06l-.2.71h-1.14c.09.25.13.48.13.69,0,.6-.26,1.14-.77,1.61-.52.47-1.22.73-2.12.78-.48.15-.85.32-1.09.52-.09.07-.14.15-.14.23,0,.09.04.17.12.25s.29.15.62.23l1.33.31c.73.17,1.22.38,1.46.62.23.24.35.52.35.83,0,.37-.14.72-.41,1.03s-.68.55-1.21.73-1.12.26-1.76.26c-.56,0-1.08-.07-1.54-.2s-.8-.32-1-.54-.3-.46-.3-.7c0-.2.06-.4.19-.61s.29-.39.49-.52c.12-.09.47-.29,1.05-.62-.21-.16-.31-.34-.31-.54,0-.18.09-.38.28-.58s.58-.43,1.17-.68c-.5-.1-.9-.31-1.19-.63s-.44-.68-.44-1.08c0-.65.28-1.23.85-1.74s1.32-.77,2.27-.77c.34,0,.62.03.84.1s.43.18.64.32h1.85ZM103.7,72.83c-.37.17-.65.39-.84.65s-.28.52-.28.78c0,.3.14.55.41.75.39.28.97.42,1.72.42.65,0,1.21-.11,1.67-.33s.69-.51.69-.86c0-.18-.09-.35-.26-.51s-.5-.29-.99-.39c-.27-.05-.98-.23-2.13-.51ZM106.97,68.14c0-.36-.1-.65-.3-.86s-.47-.31-.8-.31c-.52,0-.94.26-1.27.78s-.5,1.06-.5,1.62c0,.35.11.64.32.86s.47.33.78.33c.24,0,.48-.07.7-.2s.42-.31.57-.55.28-.53.37-.89.14-.62.14-.78Z"/>
      <path class="cls-1" d="M113.16,63.11l-1.92,6.64c.83-1.25,1.48-2.08,1.94-2.49s.91-.62,1.33-.62c.22,0,.4.08.55.23s.22.35.22.6c0,.3-.06.67-.19,1.09l-.83,2.86c-.1.35-.16.54-.16.57,0,.06.02.12.06.16s.08.06.13.06c.06,0,.13-.03.21-.09.26-.2.52-.48.77-.83l.21.13c-.15.24-.37.51-.65.8s-.51.49-.71.6-.38.17-.53.17c-.17,0-.31-.05-.41-.16s-.16-.25-.16-.41c0-.2.08-.57.24-1.12l.79-2.73c.1-.34.15-.61.15-.81,0-.09-.03-.16-.09-.22s-.13-.08-.22-.08c-.13,0-.28.05-.45.15-.31.19-.67.55-1.07,1.07-.11.14-.47.71-1.09,1.71-.19.32-.35.67-.47,1.05l-.44,1.4h-1.03l2.25-7.82.24-.85c0-.12-.05-.22-.15-.31s-.22-.14-.36-.14c-.08,0-.21.01-.38.04l-.14.02v-.27l2.37-.4Z"/>
      <path class="cls-1" d="M119.69,64.94l-.53,1.86h1.07l-.12.43h-1.07l-1.18,4.03c-.13.43-.19.71-.19.84,0,.08.02.14.05.18s.08.06.13.06c.11,0,.26-.08.45-.24.11-.09.35-.37.73-.84l.23.17c-.42.61-.82,1.04-1.19,1.29-.26.17-.51.26-.77.26-.2,0-.36-.06-.49-.19s-.19-.29-.19-.48c0-.25.07-.62.22-1.13l1.14-3.96h-1.03l.07-.27c.5-.14.92-.34,1.25-.61s.7-.74,1.11-1.41h.3Z"/>
    </g>
    <g>
      <path class="cls-1" d="M749.66,47.01c-.47.57-.95.99-1.44,1.25-.48.27-.99.4-1.53.4-.65,0-1.15-.18-1.51-.55s-.54-.85-.54-1.47c0-.7.19-1.38.58-2.06s.91-1.22,1.57-1.64c.66-.42,1.3-.63,1.94-.63.5,0,.87.1,1.11.31s.37.46.37.76c0,.28-.09.52-.26.72-.13.15-.29.23-.47.23-.14,0-.26-.05-.35-.14-.09-.09-.14-.21-.14-.34,0-.09.02-.17.05-.24s.11-.16.21-.26c.11-.1.17-.18.2-.22.02-.05.03-.09.03-.14,0-.1-.04-.18-.13-.24-.13-.09-.32-.14-.56-.14-.45,0-.89.16-1.33.47s-.81.76-1.12,1.34c-.37.7-.56,1.4-.56,2.11,0,.46.13.83.4,1.1.26.27.62.41,1.08.41.35,0,.7-.09,1.04-.26.34-.18.73-.49,1.16-.95l.2.18Z"/>
      <path class="cls-1" d="M757.04,42.31l-1.33,4.63-.15.62c-.01.06-.02.11-.02.15,0,.07.02.14.07.19.04.04.08.06.14.06.06,0,.14-.04.23-.11.18-.13.41-.41.71-.82l.23.16c-.31.47-.64.83-.97,1.08-.33.25-.64.37-.92.37-.2,0-.34-.05-.44-.15-.1-.1-.15-.24-.15-.43,0-.22.05-.52.15-.88l.14-.51c-.6.78-1.15,1.32-1.65,1.63-.36.22-.71.33-1.06.33s-.62-.14-.86-.41c-.24-.28-.36-.66-.36-1.14,0-.72.22-1.49.65-2.29.44-.8.99-1.45,1.66-1.93.52-.38,1.02-.57,1.48-.57.28,0,.51.07.69.22s.33.39.42.72l.25-.78,1.09-.16ZM754.6,42.67c-.29,0-.6.14-.93.41-.46.39-.88.96-1.24,1.72s-.54,1.45-.54,2.06c0,.31.08.55.23.73.15.18.33.27.53.27.5,0,1.04-.37,1.62-1.1.78-.98,1.17-1.98,1.17-3,0-.39-.08-.67-.23-.84s-.36-.26-.62-.26Z"/>
      <path class="cls-1" d="M760.56,42.31l-.47,1.57c.5-.58.94-.99,1.33-1.22s.79-.35,1.19-.35.75.16,1.04.48.43.74.43,1.25c0,1-.41,2.02-1.22,3.06-.82,1.04-1.77,1.56-2.85,1.56-.23,0-.43-.02-.61-.08-.17-.05-.37-.14-.59-.27l-.5,1.76c-.1.35-.15.57-.15.68s.03.19.08.26c.05.07.14.13.26.16.12.04.35.06.7.06l-.06.25h-3.22l.07-.25c.42-.02.71-.09.86-.22.15-.13.3-.48.47-1.06l1.73-5.99c.1-.38.16-.61.16-.7,0-.12-.04-.22-.11-.29-.07-.07-.18-.1-.32-.1-.13,0-.32.02-.55.05v-.27l2.34-.35ZM758.97,47.78c.28.34.66.51,1.14.51.24,0,.48-.07.72-.2s.49-.33.72-.59c.24-.26.45-.56.63-.9.19-.34.35-.74.5-1.2.15-.46.22-.92.22-1.37,0-.36-.08-.64-.25-.84-.17-.19-.36-.29-.58-.29-.49,0-.98.28-1.46.85-.48.56-.83,1.23-1.06,1.98l-.59,2.04Z"/>
      <path class="cls-1" d="M768.63,38.78l-2.34,8.13c-.11.41-.17.65-.17.75,0,.07.02.13.06.17.04.05.1.07.16.07.09,0,.18-.04.28-.12.24-.19.49-.48.75-.87l.21.21c-.43.61-.83,1.04-1.2,1.28-.27.17-.52.26-.77.26-.17,0-.32-.06-.43-.18s-.17-.26-.17-.41c0-.16.07-.5.22-1.01l1.85-6.41c.15-.52.23-.82.23-.9,0-.11-.04-.2-.13-.27-.09-.07-.22-.11-.4-.11-.11,0-.26.02-.48.05v-.25l2.34-.39Z"/>
      <path class="cls-1" d="M771.58,42.31l-1.35,4.79c-.09.32-.14.52-.14.58,0,.07.02.13.06.18.04.05.09.07.15.07.07,0,.15-.04.25-.11.26-.21.52-.5.79-.88l.24.16c-.31.47-.67.87-1.09,1.2-.31.24-.61.36-.89.36-.19,0-.34-.06-.46-.17-.12-.11-.18-.25-.18-.42s.06-.45.17-.84l.89-3.06c.15-.5.22-.82.22-.94,0-.1-.04-.18-.11-.25-.07-.06-.17-.1-.29-.1-.1,0-.31.02-.62.08v-.27l2.36-.38ZM771.49,39.6c.19,0,.35.07.49.2.13.13.2.29.2.49s-.07.35-.2.48c-.13.13-.29.2-.48.2s-.35-.07-.48-.2c-.13-.13-.2-.29-.2-.48s.07-.35.2-.49c.13-.13.29-.2.49-.2Z"/>
      <path class="cls-1" d="M775.34,42.31l-.91,3.11c.85-1.27,1.5-2.11,1.96-2.51.45-.4.89-.6,1.31-.6.23,0,.42.08.56.23.15.15.22.35.22.59,0,.27-.07.64-.2,1.09l-.83,2.88c-.1.33-.14.54-.14.61,0,.06.02.12.05.16.04.04.08.06.12.06.05,0,.12-.03.2-.09.24-.19.51-.48.79-.88l.21.13c-.42.61-.83,1.04-1.2,1.3-.26.18-.5.27-.71.27-.17,0-.3-.05-.4-.15-.1-.1-.15-.24-.15-.41,0-.22.08-.59.23-1.13l.79-2.75c.1-.34.15-.61.15-.8,0-.09-.03-.17-.09-.22-.06-.06-.13-.09-.22-.09-.13,0-.28.05-.46.16-.34.21-.69.54-1.05,1.02-.37.47-.75,1.07-1.16,1.81-.21.39-.39.81-.53,1.27l-.34,1.13h-1.03l1.24-4.28c.15-.52.22-.82.22-.93s-.04-.19-.12-.26c-.08-.08-.18-.11-.3-.11-.05,0-.15,0-.29.03l-.26.04-.04-.25,2.37-.42Z"/>
      <path class="cls-1" d="M780.91,45.92c-.03.23-.05.42-.05.57,0,.41.14.75.43,1.04s.64.43,1.05.43c.33,0,.64-.07.95-.2.3-.13.75-.43,1.35-.89l.14.2c-1.08,1.07-2.11,1.61-3.09,1.61-.67,0-1.17-.21-1.5-.63-.34-.42-.51-.88-.51-1.39,0-.68.21-1.37.63-2.08.42-.71.95-1.26,1.58-1.66.63-.39,1.29-.59,1.96-.59.48,0,.84.1,1.07.29s.35.43.35.7c0,.38-.15.74-.45,1.09-.4.45-.98.82-1.75,1.09-.51.19-1.23.33-2.15.44ZM780.96,45.59c.67-.08,1.22-.21,1.65-.4.56-.25.98-.55,1.26-.9s.42-.68.42-.99c0-.19-.06-.35-.18-.46-.12-.12-.29-.18-.52-.18-.46,0-.96.25-1.48.74-.52.49-.91,1.22-1.15,2.19Z"/>
    </g>
    <g>
      <path class="cls-1" d="M32.79,42.42c-.47.57-.95.99-1.44,1.25s-.99.4-1.53.4c-.65,0-1.15-.18-1.51-.55s-.54-.85-.54-1.47c0-.7.19-1.38.58-2.06s.91-1.22,1.57-1.64,1.3-.63,1.94-.63c.5,0,.87.1,1.11.31s.37.46.37.76c0,.28-.09.52-.26.72-.13.15-.28.23-.47.23-.14,0-.26-.05-.35-.14s-.14-.21-.14-.34c0-.09.02-.17.05-.24s.1-.16.21-.26.17-.18.19-.22.03-.09.03-.14c0-.1-.04-.18-.13-.24-.13-.09-.32-.14-.56-.14-.45,0-.89.16-1.33.47s-.81.76-1.12,1.34c-.37.7-.56,1.4-.56,2.11,0,.46.13.83.4,1.1s.62.41,1.08.41c.35,0,.7-.09,1.04-.26s.73-.49,1.16-.95l.2.18Z"/>
      <path class="cls-1" d="M40.17,37.72l-1.33,4.63-.15.62c-.01.06-.02.11-.02.15,0,.07.02.14.07.19.04.04.08.06.14.06.06,0,.14-.04.23-.11.18-.13.41-.41.71-.82l.23.16c-.31.47-.64.83-.97,1.08s-.64.37-.92.37c-.2,0-.34-.05-.44-.15s-.15-.24-.15-.43c0-.22.05-.52.15-.88l.14-.51c-.6.78-1.15,1.32-1.65,1.63-.36.22-.71.33-1.06.33s-.62-.14-.86-.41-.36-.66-.36-1.14c0-.72.22-1.49.65-2.29s.99-1.45,1.66-1.93c.52-.38,1.02-.57,1.48-.57.28,0,.51.07.69.22s.32.39.42.72l.25-.78,1.09-.16ZM37.74,38.08c-.29,0-.6.14-.93.41-.46.39-.88.96-1.24,1.72s-.54,1.45-.54,2.06c0,.31.08.55.23.73s.33.27.53.27c.5,0,1.04-.37,1.62-1.1.78-.98,1.17-1.98,1.17-3,0-.39-.08-.67-.23-.84s-.36-.26-.62-.26Z"/>
      <path class="cls-1" d="M43.7,37.72l-.47,1.57c.5-.58.94-.99,1.33-1.22s.79-.35,1.19-.35.75.16,1.04.48.43.74.43,1.25c0,1-.41,2.02-1.22,3.06s-1.77,1.56-2.85,1.56c-.23,0-.43-.02-.6-.08s-.37-.14-.59-.27l-.5,1.76c-.1.35-.15.57-.15.68s.03.19.08.26.14.13.26.16.35.06.7.06l-.06.25h-3.22l.07-.25c.42-.02.71-.09.86-.22s.3-.48.47-1.06l1.73-5.99c.1-.38.16-.61.16-.7,0-.12-.04-.22-.11-.29s-.18-.1-.32-.1c-.13,0-.32.02-.55.05v-.27l2.34-.35ZM42.1,43.19c.28.34.66.51,1.14.51.24,0,.48-.07.72-.2s.49-.33.72-.59.45-.56.63-.9.35-.74.5-1.2.22-.92.22-1.37c0-.36-.08-.64-.25-.84s-.36-.29-.58-.29c-.49,0-.98.28-1.46.85s-.83,1.23-1.06,1.98l-.59,2.04Z"/>
      <path class="cls-1" d="M51.76,34.19l-2.34,8.13c-.11.41-.17.65-.17.75,0,.07.02.13.06.17s.1.07.16.07c.09,0,.18-.04.28-.12.24-.19.49-.48.75-.87l.21.21c-.43.61-.83,1.04-1.2,1.28-.27.17-.52.26-.77.26-.17,0-.32-.06-.43-.18s-.17-.26-.17-.41c0-.16.07-.5.22-1.01l1.85-6.41c.15-.52.23-.82.23-.9,0-.11-.04-.2-.13-.27s-.22-.11-.4-.11c-.1,0-.26.02-.48.05v-.25l2.34-.39Z"/>
      <path class="cls-1" d="M54.71,37.72l-1.35,4.79c-.09.32-.14.52-.14.58,0,.07.02.13.06.18s.09.07.15.07c.07,0,.15-.04.25-.11.26-.21.52-.5.79-.88l.24.16c-.31.47-.67.87-1.09,1.2-.31.24-.61.36-.89.36-.19,0-.34-.06-.46-.17s-.18-.25-.18-.42.06-.45.17-.84l.89-3.06c.15-.5.22-.82.22-.94,0-.1-.04-.18-.11-.25s-.17-.1-.29-.1c-.1,0-.31.02-.62.08v-.27l2.36-.38ZM54.62,35.01c.19,0,.35.07.49.2s.2.29.2.49-.07.35-.2.48-.29.2-.48.2-.35-.07-.48-.2-.2-.29-.2-.48.07-.35.2-.49.29-.2.49-.2Z"/>
      <path class="cls-1" d="M58.47,37.72l-.91,3.11c.85-1.27,1.5-2.11,1.96-2.51s.89-.6,1.31-.6c.23,0,.42.08.56.23s.22.35.22.59c0,.27-.07.64-.2,1.09l-.83,2.88c-.1.33-.14.54-.14.61,0,.06.02.12.05.16s.08.06.12.06c.05,0,.12-.03.2-.09.24-.19.51-.48.79-.88l.21.13c-.42.61-.82,1.04-1.2,1.3-.26.18-.5.27-.71.27-.17,0-.3-.05-.4-.15s-.15-.24-.15-.41c0-.22.08-.59.23-1.13l.79-2.75c.1-.34.15-.61.15-.8,0-.09-.03-.17-.09-.22s-.13-.09-.22-.09c-.13,0-.28.05-.46.16-.34.21-.69.54-1.05,1.02s-.75,1.07-1.16,1.81c-.21.39-.39.81-.53,1.27l-.34,1.13h-1.03l1.24-4.28c.15-.52.22-.82.22-.93s-.04-.19-.12-.26-.18-.11-.3-.11c-.05,0-.15,0-.29.03l-.26.04-.04-.25,2.37-.42Z"/>
      <path class="cls-1" d="M64.05,41.33c-.03.23-.05.42-.05.57,0,.41.14.75.43,1.04s.64.43,1.05.43c.33,0,.64-.07.95-.2s.75-.43,1.35-.89l.14.2c-1.08,1.07-2.11,1.61-3.09,1.61-.67,0-1.17-.21-1.5-.63s-.51-.88-.51-1.39c0-.68.21-1.37.63-2.08s.95-1.26,1.58-1.66,1.29-.59,1.96-.59c.48,0,.84.1,1.07.29s.35.43.35.7c0,.38-.15.74-.45,1.09-.4.45-.98.82-1.75,1.09-.51.19-1.23.33-2.15.44ZM64.09,40.99c.67-.08,1.22-.21,1.65-.4.56-.25.98-.55,1.26-.9s.42-.68.42-.99c0-.19-.06-.35-.18-.46s-.29-.18-.52-.18c-.46,0-.96.25-1.48.74s-.91,1.22-1.15,2.19Z"/>
      <path class="cls-1" d="M73.93,34.19l-5.21,9.93h-.6l5.24-9.93h.57Z"/>
      <path class="cls-1" d="M79.05,37.72l-1.33,4.63-.15.62c-.01.06-.02.11-.02.15,0,.07.02.14.07.19.04.04.08.06.14.06.06,0,.14-.04.23-.11.18-.13.41-.41.71-.82l.23.16c-.31.47-.64.83-.97,1.08s-.64.37-.92.37c-.2,0-.34-.05-.44-.15s-.15-.24-.15-.43c0-.22.05-.52.15-.88l.14-.51c-.6.78-1.15,1.32-1.65,1.63-.36.22-.71.33-1.06.33s-.62-.14-.86-.41-.36-.66-.36-1.14c0-.72.22-1.49.65-2.29s.99-1.45,1.66-1.93c.52-.38,1.02-.57,1.48-.57.28,0,.51.07.69.22s.32.39.42.72l.25-.78,1.09-.16ZM76.62,38.08c-.29,0-.6.14-.93.41-.46.39-.88.96-1.24,1.72s-.54,1.45-.54,2.06c0,.31.08.55.23.73s.33.27.53.27c.5,0,1.04-.37,1.62-1.1.78-.98,1.17-1.98,1.17-3,0-.39-.08-.67-.23-.84s-.36-.26-.62-.26Z"/>
      <path class="cls-1" d="M84.56,37.72l-.42,2.1h-.25c-.02-.61-.15-1.06-.39-1.33s-.53-.42-.88-.42c-.28,0-.51.08-.67.23s-.25.34-.25.56c0,.15.03.29.1.43s.21.33.43.57c.59.65.98,1.13,1.15,1.46s.26.64.26.93c0,.47-.2.89-.59,1.26s-.89.55-1.49.55c-.33,0-.71-.08-1.13-.23-.15-.05-.27-.08-.35-.08-.21,0-.36.1-.46.31h-.25l.42-2.21h.25c.03.69.17,1.18.43,1.47s.62.43,1.07.43c.35,0,.62-.1.82-.29s.3-.43.3-.71c0-.18-.04-.35-.11-.51-.13-.27-.4-.65-.8-1.13s-.67-.85-.79-1.09-.17-.48-.17-.72c0-.44.16-.82.48-1.12s.73-.46,1.24-.46c.15,0,.28.01.4.03.06.01.21.06.45.15s.39.13.47.13c.2,0,.36-.11.49-.32h.26Z"/>
      <path class="cls-1" d="M90.34,42.42c-.47.57-.95.99-1.44,1.25s-.99.4-1.53.4c-.65,0-1.15-.18-1.51-.55s-.54-.85-.54-1.47c0-.7.19-1.38.58-2.06s.91-1.22,1.57-1.64,1.3-.63,1.94-.63c.5,0,.87.1,1.11.31s.37.46.37.76c0,.28-.09.52-.26.72-.13.15-.28.23-.47.23-.14,0-.26-.05-.35-.14s-.14-.21-.14-.34c0-.09.02-.17.05-.24s.1-.16.21-.26.17-.18.19-.22.03-.09.03-.14c0-.1-.04-.18-.13-.24-.13-.09-.32-.14-.56-.14-.45,0-.89.16-1.33.47s-.81.76-1.12,1.34c-.37.7-.56,1.4-.56,2.11,0,.46.13.83.4,1.1s.62.41,1.08.41c.35,0,.7-.09,1.04-.26s.73-.49,1.16-.95l.2.18Z"/>
      <path class="cls-1" d="M92.81,41.33c-.03.23-.05.42-.05.57,0,.41.14.75.43,1.04s.64.43,1.05.43c.33,0,.64-.07.95-.2s.75-.43,1.35-.89l.14.2c-1.08,1.07-2.11,1.61-3.09,1.61-.67,0-1.17-.21-1.5-.63s-.51-.88-.51-1.39c0-.68.21-1.37.63-2.08s.95-1.26,1.58-1.66,1.29-.59,1.96-.59c.48,0,.84.1,1.07.29s.35.43.35.7c0,.38-.15.74-.45,1.09-.4.45-.98.82-1.75,1.09-.51.19-1.23.33-2.15.44ZM92.86,40.99c.67-.08,1.22-.21,1.65-.4.56-.25.98-.55,1.26-.9s.42-.68.42-.99c0-.19-.06-.35-.18-.46s-.29-.18-.52-.18c-.46,0-.96.25-1.48.74s-.91,1.22-1.15,2.19Z"/>
      <path class="cls-1" d="M100.45,37.72l-.91,3.11c.85-1.27,1.5-2.11,1.96-2.51s.89-.6,1.31-.6c.23,0,.42.08.56.23s.22.35.22.59c0,.27-.07.64-.2,1.09l-.83,2.88c-.1.33-.14.54-.14.61,0,.06.02.12.05.16s.08.06.12.06c.05,0,.12-.03.2-.09.24-.19.51-.48.79-.88l.21.13c-.42.61-.82,1.04-1.2,1.3-.26.18-.5.27-.71.27-.17,0-.3-.05-.4-.15s-.15-.24-.15-.41c0-.22.08-.59.23-1.13l.79-2.75c.1-.34.15-.61.15-.8,0-.09-.03-.17-.09-.22s-.13-.09-.22-.09c-.13,0-.28.05-.46.16-.34.21-.69.54-1.05,1.02s-.75,1.07-1.16,1.81c-.21.39-.39.81-.53,1.27l-.34,1.13h-1.03l1.24-4.28c.15-.52.22-.82.22-.93s-.04-.19-.12-.26-.18-.11-.3-.11c-.05,0-.15,0-.29.03l-.26.04-.04-.25,2.37-.42Z"/>
      <path class="cls-1" d="M111.93,34.19l-2.35,8.07c-.13.44-.19.72-.19.86,0,.05.02.09.06.13s.08.06.12.06c.06,0,.13-.03.21-.09.15-.11.41-.38.78-.82l.23.14c-.33.46-.66.82-.99,1.11s-.65.42-.94.42c-.15,0-.28-.05-.38-.16s-.15-.26-.15-.46c0-.26.07-.61.21-1.05l.27-.85c-.66,1.02-1.26,1.73-1.8,2.12-.37.27-.73.4-1.07.4s-.65-.15-.91-.46-.39-.73-.39-1.25c0-.68.22-1.4.65-2.17s1-1.4,1.72-1.88c.56-.39,1.08-.58,1.54-.58.25,0,.46.05.64.15s.35.27.53.5l.67-2.38c.05-.17.09-.3.12-.4.05-.18.08-.33.08-.45,0-.1-.03-.18-.1-.24-.1-.08-.22-.12-.37-.12-.1,0-.28.02-.52.05v-.25l2.35-.39ZM109.4,39.04c0-.29-.08-.53-.25-.7s-.38-.27-.64-.27c-.57,0-1.17.47-1.79,1.42s-.93,1.85-.93,2.72c0,.34.08.6.23.78s.33.27.54.27c.47,0,1.07-.51,1.78-1.54s1.07-1.92,1.07-2.69Z"/>
      <path class="cls-1" d="M113.03,41.33c-.03.23-.05.42-.05.57,0,.41.14.75.43,1.04s.64.43,1.05.43c.33,0,.64-.07.95-.2s.75-.43,1.35-.89l.14.2c-1.08,1.07-2.11,1.61-3.09,1.61-.67,0-1.17-.21-1.5-.63s-.51-.88-.51-1.39c0-.68.21-1.37.63-2.08s.95-1.26,1.58-1.66,1.29-.59,1.96-.59c.48,0,.84.1,1.07.29s.35.43.35.7c0,.38-.15.74-.45,1.09-.4.45-.98.82-1.75,1.09-.51.19-1.23.33-2.15.44ZM113.07,40.99c.67-.08,1.22-.21,1.65-.4.56-.25.98-.55,1.26-.9s.42-.68.42-.99c0-.19-.06-.35-.18-.46s-.29-.18-.52-.18c-.46,0-.96.25-1.48.74s-.91,1.22-1.15,2.19Z"/>
      <path class="cls-1" d="M118.3,38.1l2.36-.38-.98,3.32c.8-1.36,1.52-2.31,2.17-2.86.37-.31.67-.46.9-.46.15,0,.27.04.36.13s.13.22.13.39c0,.3-.08.59-.23.86-.11.21-.27.31-.47.31-.1,0-.19-.03-.27-.1s-.12-.17-.14-.31c0-.09-.03-.14-.06-.17-.04-.04-.08-.05-.13-.05-.08,0-.15.02-.22.05-.12.06-.3.24-.54.53-.38.45-.79,1.03-1.23,1.74-.19.3-.36.64-.49,1.02-.19.52-.3.83-.33.94l-.22.86h-1.05l1.26-4.25c.15-.49.22-.84.22-1.05,0-.08-.03-.15-.1-.21-.09-.07-.21-.11-.36-.11-.1,0-.27.02-.53.06l-.05-.25Z"/>
    </g>
    <g>
      <path class="cls-1" d="M70.46,146.87l-2.35,8.07c-.13.44-.19.72-.19.86,0,.05.02.09.06.13s.08.06.12.06c.06,0,.13-.03.21-.09.15-.11.41-.38.78-.82l.23.14c-.33.46-.66.82-.99,1.11s-.65.42-.94.42c-.15,0-.28-.05-.38-.16s-.15-.26-.15-.46c0-.26.07-.61.21-1.05l.27-.85c-.66,1.02-1.26,1.73-1.8,2.12-.37.27-.73.4-1.07.4s-.65-.15-.91-.46-.39-.73-.39-1.25c0-.68.22-1.4.65-2.17s1-1.4,1.72-1.88c.56-.39,1.08-.58,1.54-.58.25,0,.46.05.64.15s.35.27.53.5l.67-2.38c.05-.17.09-.3.12-.4.05-.18.08-.33.08-.45,0-.1-.03-.18-.1-.24-.1-.08-.22-.12-.37-.12-.1,0-.28.02-.52.05v-.25l2.35-.39ZM67.92,151.72c0-.29-.08-.53-.25-.7s-.38-.27-.64-.27c-.57,0-1.17.47-1.79,1.42s-.93,1.85-.93,2.72c0,.34.08.6.23.78s.33.27.54.27c.47,0,1.07-.51,1.78-1.54s1.07-1.92,1.07-2.69Z"/>
      <path class="cls-1" d="M71.55,154.01c-.03.23-.05.42-.05.57,0,.41.14.75.43,1.04s.64.43,1.05.43c.33,0,.64-.07.95-.2s.75-.43,1.35-.89l.14.2c-1.08,1.07-2.11,1.61-3.09,1.61-.67,0-1.17-.21-1.5-.63s-.51-.88-.51-1.39c0-.68.21-1.37.63-2.08s.95-1.26,1.58-1.66,1.29-.59,1.96-.59c.48,0,.84.1,1.07.29s.35.43.35.7c0,.38-.15.74-.45,1.09-.4.45-.98.82-1.75,1.09-.51.19-1.23.33-2.15.44ZM71.6,153.68c.67-.08,1.22-.21,1.65-.4.56-.25.98-.55,1.26-.9s.42-.68.42-.99c0-.19-.06-.35-.18-.46s-.29-.18-.52-.18c-.46,0-.96.25-1.48.74s-.91,1.22-1.15,2.19Z"/>
      <path class="cls-1" d="M81.17,150.4l-.42,2.1h-.25c-.02-.61-.15-1.06-.39-1.33s-.53-.42-.88-.42c-.28,0-.51.08-.67.23s-.25.34-.25.56c0,.15.03.29.1.43s.21.33.43.57c.59.65.98,1.13,1.15,1.46s.26.64.26.93c0,.47-.2.89-.59,1.26s-.89.55-1.49.55c-.33,0-.71-.08-1.13-.23-.15-.05-.27-.08-.35-.08-.21,0-.36.1-.46.31h-.25l.42-2.21h.25c.03.69.17,1.18.43,1.47s.62.43,1.07.43c.35,0,.62-.1.82-.29s.3-.43.3-.71c0-.18-.04-.35-.11-.51-.13-.27-.4-.65-.8-1.13s-.67-.85-.79-1.09-.17-.48-.17-.72c0-.44.16-.82.48-1.12s.73-.46,1.24-.46c.15,0,.28.01.4.03.06.01.21.06.45.15s.39.13.47.13c.2,0,.36-.11.49-.32h.26Z"/>
      <path class="cls-1" d="M86.95,155.1c-.47.57-.95.99-1.44,1.25s-.99.4-1.53.4c-.65,0-1.15-.18-1.51-.55s-.54-.85-.54-1.47c0-.7.19-1.38.58-2.06s.91-1.22,1.57-1.64,1.3-.63,1.94-.63c.5,0,.87.1,1.11.31s.37.46.37.76c0,.28-.09.52-.26.72-.13.15-.28.23-.47.23-.14,0-.26-.05-.35-.14s-.14-.21-.14-.34c0-.09.02-.17.05-.24s.1-.16.21-.26.17-.18.19-.22.03-.09.03-.14c0-.1-.04-.18-.13-.24-.13-.09-.32-.14-.56-.14-.45,0-.89.16-1.33.47s-.81.76-1.12,1.34c-.37.7-.56,1.4-.56,2.11,0,.46.13.83.4,1.1s.62.41,1.08.41c.35,0,.7-.09,1.04-.26s.73-.49,1.16-.95l.2.18Z"/>
      <path class="cls-1" d="M89.43,154.01c-.03.23-.05.42-.05.57,0,.41.14.75.43,1.04s.64.43,1.05.43c.33,0,.64-.07.95-.2s.75-.43,1.35-.89l.14.2c-1.08,1.07-2.11,1.61-3.09,1.61-.67,0-1.17-.21-1.5-.63s-.51-.88-.51-1.39c0-.68.21-1.37.63-2.08s.95-1.26,1.58-1.66,1.29-.59,1.96-.59c.48,0,.84.1,1.07.29s.35.43.35.7c0,.38-.15.74-.45,1.09-.4.45-.98.82-1.75,1.09-.51.19-1.23.33-2.15.44ZM89.47,153.68c.67-.08,1.22-.21,1.65-.4.56-.25.98-.55,1.26-.9s.42-.68.42-.99c0-.19-.06-.35-.18-.46s-.29-.18-.52-.18c-.46,0-.96.25-1.48.74s-.91,1.22-1.15,2.19Z"/>
      <path class="cls-1" d="M97.06,150.4l-.91,3.11c.85-1.27,1.5-2.11,1.96-2.51s.89-.6,1.31-.6c.23,0,.42.08.56.23s.22.35.22.59c0,.27-.07.64-.2,1.09l-.83,2.88c-.1.33-.14.54-.14.61,0,.06.02.12.05.16s.08.06.12.06c.05,0,.12-.03.2-.09.24-.19.51-.48.79-.88l.21.13c-.42.61-.82,1.04-1.2,1.3-.26.18-.5.27-.71.27-.17,0-.3-.05-.4-.15s-.15-.24-.15-.41c0-.22.08-.59.23-1.13l.79-2.75c.1-.34.15-.61.15-.8,0-.09-.03-.17-.09-.22s-.13-.09-.22-.09c-.13,0-.28.05-.46.16-.34.21-.69.54-1.05,1.02s-.75,1.07-1.16,1.81c-.21.39-.39.81-.53,1.27l-.34,1.13h-1.03l1.24-4.28c.15-.52.22-.82.22-.93s-.04-.19-.12-.26-.18-.11-.3-.11c-.05,0-.15,0-.29.03l-.26.04-.04-.25,2.37-.42Z"/>
      <path class="cls-1" d="M108.55,146.87l-2.35,8.07c-.13.44-.19.72-.19.86,0,.05.02.09.06.13s.08.06.12.06c.06,0,.13-.03.21-.09.15-.11.41-.38.78-.82l.23.14c-.33.46-.66.82-.99,1.11s-.65.42-.94.42c-.15,0-.28-.05-.38-.16s-.15-.26-.15-.46c0-.26.07-.61.21-1.05l.27-.85c-.66,1.02-1.26,1.73-1.8,2.12-.37.27-.73.4-1.07.4s-.65-.15-.91-.46-.39-.73-.39-1.25c0-.68.22-1.4.65-2.17s1-1.4,1.72-1.88c.56-.39,1.08-.58,1.54-.58.25,0,.46.05.64.15s.35.27.53.5l.67-2.38c.05-.17.09-.3.12-.4.05-.18.08-.33.08-.45,0-.1-.03-.18-.1-.24-.1-.08-.22-.12-.37-.12-.1,0-.28.02-.52.05v-.25l2.35-.39ZM106.01,151.72c0-.29-.08-.53-.25-.7s-.38-.27-.64-.27c-.57,0-1.17.47-1.79,1.42s-.93,1.85-.93,2.72c0,.34.08.6.23.78s.33.27.54.27c.47,0,1.07-.51,1.78-1.54s1.07-1.92,1.07-2.69Z"/>
      <path class="cls-1" d="M109.64,154.01c-.03.23-.05.42-.05.57,0,.41.14.75.43,1.04s.64.43,1.05.43c.33,0,.64-.07.95-.2s.75-.43,1.35-.89l.14.2c-1.08,1.07-2.11,1.61-3.09,1.61-.67,0-1.17-.21-1.5-.63s-.51-.88-.51-1.39c0-.68.21-1.37.63-2.08s.95-1.26,1.58-1.66,1.29-.59,1.96-.59c.48,0,.84.1,1.07.29s.35.43.35.7c0,.38-.15.74-.45,1.09-.4.45-.98.82-1.75,1.09-.51.19-1.23.33-2.15.44ZM109.69,153.68c.67-.08,1.22-.21,1.65-.4.56-.25.98-.55,1.26-.9s.42-.68.42-.99c0-.19-.06-.35-.18-.46s-.29-.18-.52-.18c-.46,0-.96.25-1.48.74s-.91,1.22-1.15,2.19Z"/>
      <path class="cls-1" d="M114.92,150.79l2.36-.38-.98,3.32c.8-1.36,1.52-2.31,2.17-2.86.37-.31.67-.46.9-.46.15,0,.27.04.36.13s.13.22.13.39c0,.3-.08.59-.23.86-.11.21-.27.31-.47.31-.1,0-.19-.03-.27-.1s-.12-.17-.14-.31c0-.09-.03-.14-.06-.17-.04-.04-.08-.05-.13-.05-.08,0-.15.02-.22.05-.12.06-.3.24-.54.53-.38.45-.79,1.03-1.23,1.74-.19.3-.36.64-.49,1.02-.19.52-.3.83-.33.94l-.22.86h-1.05l1.26-4.25c.15-.49.22-.84.22-1.05,0-.08-.03-.15-.1-.21-.09-.07-.21-.11-.36-.11-.1,0-.27.02-.53.06l-.05-.25Z"/>
    </g>
    <g>
      <path class="cls-1" d="M77.62,123.83l-1.35,4.72c.44-.46.82-.77,1.15-.94s.67-.25,1.02-.25c.5,0,.91.17,1.23.5s.48.78.48,1.35c0,.73-.21,1.46-.63,2.19s-.95,1.29-1.58,1.7-1.26.61-1.87.61c-.69,0-1.39-.26-2.12-.77l2.08-7.16c.16-.55.24-.88.24-.97,0-.12-.04-.21-.11-.27-.1-.08-.26-.12-.46-.12-.1,0-.24.02-.44.05v-.26l2.37-.38ZM74.98,133.02c.46.25.86.38,1.2.38.4,0,.82-.15,1.25-.44s.8-.79,1.12-1.49.48-1.4.48-2.11c0-.42-.1-.75-.31-.98s-.45-.36-.73-.36c-.42,0-.84.17-1.24.51s-.69.81-.87,1.42l-.89,3.08Z"/>
      <path class="cls-1" d="M87.15,127.36l-1.33,4.63-.15.62c-.01.06-.02.11-.02.15,0,.07.02.14.07.19.04.04.08.06.14.06.06,0,.14-.04.23-.11.18-.13.41-.41.71-.82l.23.16c-.31.47-.64.83-.97,1.08s-.64.37-.92.37c-.2,0-.34-.05-.44-.15s-.15-.24-.15-.43c0-.22.05-.52.15-.88l.14-.51c-.6.78-1.15,1.32-1.65,1.63-.36.22-.71.33-1.06.33s-.62-.14-.86-.41-.36-.66-.36-1.14c0-.72.22-1.49.65-2.29s.99-1.45,1.66-1.93c.52-.38,1.02-.57,1.48-.57.28,0,.51.07.69.22s.32.39.42.72l.25-.78,1.09-.16ZM84.72,127.72c-.29,0-.6.14-.93.41-.46.39-.88.96-1.24,1.72s-.54,1.45-.54,2.06c0,.31.08.55.23.73s.33.27.53.27c.5,0,1.04-.37,1.62-1.1.78-.98,1.17-1.98,1.17-3,0-.39-.08-.67-.23-.84s-.36-.26-.62-.26Z"/>
      <path class="cls-1" d="M92.66,127.36l-.42,2.1h-.25c-.02-.61-.15-1.06-.39-1.33s-.53-.42-.88-.42c-.28,0-.51.08-.67.23s-.25.34-.25.56c0,.15.03.29.1.43s.21.33.43.57c.59.65.98,1.13,1.15,1.46s.26.64.26.93c0,.47-.2.89-.59,1.26s-.89.55-1.49.55c-.33,0-.71-.08-1.13-.23-.15-.05-.27-.08-.35-.08-.21,0-.36.1-.46.31h-.25l.42-2.21h.25c.03.69.17,1.18.43,1.47s.62.43,1.07.43c.35,0,.62-.1.82-.29s.3-.43.3-.71c0-.18-.04-.35-.11-.51-.13-.27-.4-.65-.8-1.13s-.67-.85-.79-1.09-.17-.48-.17-.72c0-.44.16-.82.48-1.12s.73-.46,1.24-.46c.15,0,.28.01.4.03.06.01.21.06.45.15s.39.13.47.13c.2,0,.36-.11.49-.32h.26Z"/>
      <path class="cls-1" d="M94.7,130.97c-.03.23-.05.42-.05.57,0,.41.14.75.43,1.04s.64.43,1.05.43c.33,0,.64-.07.95-.2s.75-.43,1.35-.89l.14.2c-1.08,1.07-2.11,1.61-3.09,1.61-.67,0-1.17-.21-1.5-.63s-.51-.88-.51-1.39c0-.68.21-1.37.63-2.08s.95-1.26,1.58-1.66,1.29-.59,1.96-.59c.48,0,.84.1,1.07.29s.35.43.35.7c0,.38-.15.74-.45,1.09-.4.45-.98.82-1.75,1.09-.51.19-1.23.33-2.15.44ZM94.74,130.64c.67-.08,1.22-.21,1.65-.4.56-.25.98-.55,1.26-.9s.42-.68.42-.99c0-.19-.06-.35-.18-.46s-.29-.18-.52-.18c-.46,0-.96.25-1.48.74s-.91,1.22-1.15,2.19Z"/>
      <path class="cls-1" d="M103.41,123.83l-2.34,8.13c-.11.41-.17.65-.17.75,0,.07.02.13.06.17s.1.07.16.07c.09,0,.18-.04.28-.12.24-.19.49-.48.75-.87l.21.21c-.43.61-.83,1.04-1.2,1.28-.27.17-.52.26-.77.26-.17,0-.32-.06-.43-.18s-.17-.26-.17-.41c0-.16.07-.5.22-1.01l1.85-6.41c.15-.52.23-.82.23-.9,0-.11-.04-.2-.13-.27s-.22-.11-.4-.11c-.1,0-.26.02-.48.05v-.25l2.34-.39Z"/>
      <path class="cls-1" d="M106.35,127.36l-1.35,4.79c-.09.32-.14.52-.14.58,0,.07.02.13.06.18s.09.07.15.07c.07,0,.15-.04.25-.11.26-.21.52-.5.79-.88l.24.16c-.31.47-.67.87-1.09,1.2-.31.24-.61.36-.89.36-.19,0-.34-.06-.46-.17s-.18-.25-.18-.42.06-.45.17-.84l.89-3.06c.15-.5.22-.82.22-.94,0-.1-.04-.18-.11-.25s-.17-.1-.29-.1c-.1,0-.31.02-.62.08v-.27l2.36-.38ZM106.26,124.65c.19,0,.35.07.49.2s.2.29.2.49-.07.35-.2.48-.29.2-.48.2-.35-.07-.48-.2-.2-.29-.2-.48.07-.35.2-.49.29-.2.49-.2Z"/>
      <path class="cls-1" d="M110.11,127.36l-.91,3.11c.85-1.27,1.5-2.11,1.96-2.51s.89-.6,1.31-.6c.23,0,.42.08.56.23s.22.35.22.59c0,.27-.07.64-.2,1.09l-.83,2.88c-.1.33-.14.54-.14.61,0,.06.02.12.05.16s.08.06.12.06c.05,0,.12-.03.2-.09.24-.19.51-.48.79-.88l.21.13c-.42.61-.82,1.04-1.2,1.3-.26.18-.5.27-.71.27-.17,0-.3-.05-.4-.15s-.15-.24-.15-.41c0-.22.08-.59.23-1.13l.79-2.75c.1-.34.15-.61.15-.8,0-.09-.03-.17-.09-.22s-.13-.09-.22-.09c-.13,0-.28.05-.46.16-.34.21-.69.54-1.05,1.02s-.75,1.07-1.16,1.81c-.21.39-.39.81-.53,1.27l-.34,1.13h-1.03l1.24-4.28c.15-.52.22-.82.22-.93s-.04-.19-.12-.26-.18-.11-.3-.11c-.05,0-.15,0-.29.03l-.26.04-.04-.25,2.37-.42Z"/>
      <path class="cls-1" d="M115.69,130.97c-.03.23-.05.42-.05.57,0,.41.14.75.43,1.04s.64.43,1.05.43c.33,0,.64-.07.95-.2s.75-.43,1.35-.89l.14.2c-1.08,1.07-2.11,1.61-3.09,1.61-.67,0-1.17-.21-1.5-.63s-.51-.88-.51-1.39c0-.68.21-1.37.63-2.08s.95-1.26,1.58-1.66,1.29-.59,1.96-.59c.48,0,.84.1,1.07.29s.35.43.35.7c0,.38-.15.74-.45,1.09-.4.45-.98.82-1.75,1.09-.51.19-1.23.33-2.15.44ZM115.74,130.64c.67-.08,1.22-.21,1.65-.4.56-.25.98-.55,1.26-.9s.42-.68.42-.99c0-.19-.06-.35-.18-.46s-.29-.18-.52-.18c-.46,0-.96.25-1.48.74s-.91,1.22-1.15,2.19Z"/>
    </g>
  </g>
  <g id="lines">
    <line class="cls-2" x1="131.98" y1="129.99" x2="430.04" y2="129.99"/>
    <line class="cls-2" x1="132.06" y1="68.93" x2="430.12" y2="68.93"/>
    <line class="cls-2" x1="132.17" y1="42.67" x2="430.23" y2="42.67"/>
    <line class="cls-2" x1="440.29" y1="44.84" x2="738.35" y2="44.84"/>
    <line class="cls-2" x1="440.29" y1="40.25" x2="738.35" y2="40.25"/>
    <line class="cls-2" x1="440.29" y1="128.66" x2="738.35" y2="128.66"/>
    <line class="cls-2" x1="440.29" y1="152.63" x2="738.35" y2="152.63"/>
    <line class="cls-2" x1="440.29" y1="67.67" x2="738.35" y2="67.67"/>
    <line class="cls-2" x1="132.04" y1="152.93" x2="430.11" y2="152.93"/>
  </g>
  <g id="Layer_3" data-name="Layer 3">
    <g>
      <path class="cls-1" d="M443.82,171.93l-1.42,3.95h-1.74l4.69-13.16h2.14l4.9,13.16h-1.87l-1.46-3.95h-5.24ZM448.62,170.43c-1.27-3.46-1.95-5.29-2.23-6.29h-.02c-.32,1.12-1.1,3.35-2.1,6.29h4.35Z"/>
      <path class="cls-1" d="M461.74,172.95c-.4,1.64-1.51,3.16-3.95,3.16-2.65,0-4.27-1.89-4.27-4.97,0-2.7,1.53-5.07,4.38-5.07s3.72,1.97,3.84,3.19h-1.64c-.23-.96-.83-1.81-2.23-1.81-1.68,0-2.65,1.46-2.65,3.63s.93,3.65,2.59,3.65c1.19,0,1.89-.64,2.29-1.78h1.64Z"/>
      <path class="cls-1" d="M471.33,173.08c0,.95.02,2.23.02,2.8h-1.61c-.04-.25-.06-.83-.07-1.44-.47,1.06-1.38,1.66-2.89,1.66-1.62,0-3.17-.81-3.17-3.52v-6.29h1.64v5.95c0,1.25.4,2.42,1.99,2.42,1.76,0,2.44-.98,2.44-3.38v-4.99h1.66v6.79Z"/>
      <path class="cls-1" d="M474.17,168.77c0-.83,0-1.7-.02-2.48h1.59c.04.28.07.98.07,1.47.43-.85,1.27-1.7,2.78-1.7,1.36,0,2.29.68,2.67,1.72.51-.91,1.42-1.72,3.04-1.72s3.02.93,3.02,3.52v6.29h-1.62v-6.11c0-1.1-.4-2.27-1.89-2.27-1.57,0-2.25,1.17-2.25,2.87v5.5h-1.63v-6.05c0-1.23-.34-2.32-1.85-2.32s-2.27,1.25-2.27,3.06v5.31h-1.64v-7.11Z"/>
      <path class="cls-1" d="M490.15,164.06v-2.06h1.66v2.06h-1.66ZM490.15,166.3h1.66v9.58h-1.66v-9.58Z"/>
      <path class="cls-1" d="M494.63,168.71c0-.83,0-1.68-.02-2.42h1.61c.06.28.08,1.29.08,1.57.38-.81,1.15-1.8,3.01-1.8s3.21,1.1,3.21,3.65v6.16h-1.66v-5.95c0-1.46-.57-2.42-2.02-2.42-1.81,0-2.53,1.38-2.53,3.31v5.07h-1.66v-7.16Z"/>
    </g>
    <g>
      <path class="cls-1" d="M139.14,176.12c-3.63,0-5.48-1.76-5.48-5.5v-8.41h1.85v8.16c0,.98.02,2,.57,2.85.66,1.04,1.89,1.47,3.08,1.47,1.4,0,2.76-.62,3.33-1.97.32-.76.34-1.59.34-2.4v-8.13h1.8v8.45c0,3.5-1.97,5.46-5.48,5.46Z"/>
      <path class="cls-1" d="M154.35,175.88v-5.29c0-1.66-.19-3.1-2.21-3.1s-2.63,1.87-2.63,3.63v4.76h-1.66v-7.09c0-.81-.04-1.91-.06-2.46h1.64l.06,1.53c.77-1.1,1.74-1.64,3.12-1.64,2.5,0,3.4,1.38,3.4,3.72v5.94h-1.66Z"/>
      <path class="cls-1" d="M158.96,163.89v-1.68h1.85v1.68h-1.85ZM159.05,175.88v-9.55h1.66v9.55h-1.66Z"/>
      <path class="cls-1" d="M168.12,175.88h-1.74l-3.87-9.55h1.89l2.97,7.94,3.02-7.94h1.7l-3.97,9.55Z"/>
      <path class="cls-1" d="M174.49,171.42v.19c0,1.76.94,3.36,2.87,3.36,1.36,0,2.25-.83,2.46-2.17h1.59c-.38,2.25-2,3.29-4.18,3.29-2.97,0-4.4-1.98-4.4-4.82s1.44-5.1,4.54-5.1,4.1,2.48,4.1,5.26h-6.97ZM177.31,167.3c-1.76,0-2.63,1.44-2.78,3.02h5.29c.02-1.57-.77-3.02-2.51-3.02Z"/>
      <path class="cls-1" d="M188.13,167.81c-1.97,0-2.61,1.12-2.61,2.93v5.14h-1.66v-6.75c0-.93-.02-1.87-.06-2.8h1.62l.08,1.53c.68-1.12,1.61-1.59,2.91-1.59.17,0,.38.02.53.04v1.57c-.25-.04-.55-.08-.81-.08Z"/>
      <path class="cls-1" d="M193.56,176.09c-2.02,0-3.72-.79-3.72-3.1h1.66c.07,1.32.83,1.95,2.14,1.95,1,0,2.15-.49,2.15-1.62,0-1-.94-1.4-2.06-1.66l-.77-.19c-1.42-.34-2.87-.93-2.87-2.63,0-1.98,1.95-2.72,3.63-2.72,1.91,0,3.42.79,3.5,2.89h-1.64c-.04-1.12-.77-1.76-1.89-1.76-.87,0-1.97.4-1.97,1.42,0,.89.91,1.3,2.04,1.59l.76.19c1.66.42,2.93,1.04,2.93,2.68,0,2.17-2,2.97-3.87,2.97Z"/>
      <path class="cls-1" d="M214.04,175.88l-6.79-11.85v11.85h-1.61v-13.67h2.38l6.79,11.89v-11.89h1.61v13.67h-2.38Z"/>
      <path class="cls-1" d="M220.78,171.42v.19c0,1.76.94,3.36,2.87,3.36,1.36,0,2.25-.83,2.46-2.17h1.59c-.38,2.25-2,3.29-4.18,3.29-2.97,0-4.4-1.98-4.4-4.82s1.44-5.1,4.54-5.1,4.1,2.48,4.1,5.26h-6.97ZM223.6,167.3c-1.76,0-2.63,1.44-2.78,3.02h5.29c.02-1.57-.77-3.02-2.51-3.02Z"/>
      <path class="cls-1" d="M235.86,175.88l-2.74-3.93-2.74,3.93h-1.83l3.69-4.9-3.48-4.65h2.08l2.5,3.63,2.55-3.63h1.83l-3.46,4.65,3.71,4.9h-2.1Z"/>
      <path class="cls-1" d="M242.68,175.97c-1.53,0-2.32-.62-2.32-2.21v-6.27h-1.87v-1.15h1.87v-1.85l1.66-.7v2.55h2.14v1.15h-2.14v5.61c0,1.15.15,1.59,1.3,1.59.3,0,.57-.04.89-.09v1.27c-.53.07-1.02.11-1.53.11Z"/>
    </g>
  </g>
</svg>