<?xml version="1.0" encoding="UTF-8"?>
<svg id="Layer_3" data-name="Layer 3" xmlns="http://www.w3.org/2000/svg" viewBox="0 0 209.71 91.05">
  <defs>
    <style>
      .cls-1 {
        fill: #d35b30;
      }

      .cls-2 {
        fill: none;
        stroke: #cc2229;
        stroke-miterlimit: 10;
      }

      .cls-3 {
        fill: #00acec;
      }

      .cls-4 {
        fill: #272525;
      }
    </style>
  </defs>
  <g>
    <rect class="cls-1" x="124.88" y="66.65" width="9.18" height="14.08"/>
    <path class="cls-4" d="M130.7,8.71c-14.77,0-19.76,10.26-20.87,16.88h8.99c1.48-5.71,4.96-9.44,11.68-9.44,7.75,0,10.91,5.61,10.91,10.51,0,4.18-1.02,8.16-6.83,13.46-8.06,7.14-9.69,12.24-9.69,17.65v1.53h9.18v-.82c0-4.9,1.63-8.47,6.73-13.06,7.45-6.83,9.79-11.42,9.79-18.56,0-7.75-5-18.05-19.89-18.16Z"/>
    <path class="cls-1" d="M109.58,27.78h8.77c.12-.76.28-1.49.46-2.19h-8.99c-.13.79-.21,1.53-.25,2.19Z"/>
    <path class="cls-2" d="M136.88,7.25c13.15,1.82,20,16.01,14,30.35"/>
  </g>
  <g>
    <g>
      <path class="cls-3" d="M50.06,6.97v7.45c1.08-.31,2.15-.57,3.21-.8-.38-2.32-.6-4.48-1.17-6.98-.68.11-1.36.22-2.05.34Z"/>
      <rect class="cls-3" x="56.49" y="70.42" width="10.3" height="10.3"/>
      <path class="cls-4" d="M61.79,5.75c-3.21,0-6.42.36-9.68.88.57,2.51.78,4.66,1.17,6.98,2.46-.53,4.9-.83,7.4-.83,7.85,0,15.2,3.16,15.2,12.04,0,7.04-4.79,10.81-9.89,15.4-6.83,6.22-8.26,7.85-8.26,15v7.34h7.85v-7.34c0-3.16.61-4.49,4.18-7.75,8.77-7.96,15.71-13.87,15.71-23.05,0-14.08-11.42-18.67-23.67-18.67Z"/>
    </g>
    <path class="cls-2" d="M70.49,4.36c16.81,4.48,21.06,18.19,14,33.24"/>
  </g>
</svg>