<?xml version="1.0" encoding="UTF-8"?>
<svg xmlns="http://www.w3.org/2000/svg" viewBox="0 0 209.71 91.05">
  <defs>
    <style>
      .cls-1, .cls-2 {
        fill: #f15a29;
      }

      .cls-3 {
        isolation: isolate;
      }

      .cls-4, .cls-5 {
        fill: #00aeef;
      }

      .cls-5, .cls-2 {
        mix-blend-mode: multiply;
      }

      .cls-6 {
        stroke-linecap: round;
        stroke-linejoin: round;
      }

      .cls-6, .cls-7 {
        fill: none;
        stroke: #ed1c24;
      }

      .cls-7 {
        stroke-miterlimit: 10;
        stroke-width: .5px;
      }
    </style>
  </defs>
  <g class="cls-3">
    <g id="Layer_3" data-name="Layer 3">
      <g>
        <path class="cls-1" d="M123.58,29.27h8.47c.15-.62.32-1.23.52-1.82h-8.67c-.13.61-.24,1.21-.32,1.82Z"/>
        <path d="M155.48,43.35v-.24c4.02-1.51,8.78-5.59,8.78-13.62,0-8.75-6.19-17.07-19.85-17.07s-18.88,7.5-20.5,15.03h8.67c1.49-4.38,4.57-7.68,11.53-7.68,7.3,0,11.25,4.09,11.25,10.04,0,6.88-3.76,10.27-12.38,10.27h-3.95v7.19h4.71c8.89,0,14.26,3.99,14.26,12.72,0,7.12-3.94,13.37-13.36,13.37-8.47,0-12.88-5.15-14.2-10.97h-8.71c.99,8.77,7.4,18.25,22.51,18.25,16.34,0,22.84-10.21,22.84-20.67,0-9.85-5.7-14.72-11.6-16.61Z"/>
      </g>
      <g>
        <path class="cls-4" d="M51.42,25.82h9.2c.09-.83.23-1.61.39-2.37h-9.39c-.11.76-.18,1.55-.21,2.37Z"/>
        <path d="M84.52,41.63c7.7-2,13.5-7.6,13.5-16.3,0-13.5-10.8-19.6-23.1-19.6-11.09,0-21.65,5.83-23.29,17.73h9.39c1.55-7.05,6.49-10.73,13.81-10.73s14,3.4,14,12.9c0,8.8-7.3,13-15,13-1.3,0-2.7-.1-4.1-.3v7.5c1.4-.2,2.6-.2,3.9-.2,8.3,0,16.5,3.9,16.5,13.7,0,9.2-7.2,14.2-15.4,14.2-7.7,0-14.9-4.8-15-13.6h-9.4c.8,14.5,11.1,20.7,24.2,20.7s25.3-6.3,25.3-20.7c0-10.7-6.2-15.7-15.3-18.3Z"/>
      </g>
      <line class="cls-7" x1="35.02" y1="5.72" x2="175.04" y2="5.72"/>
      <line class="cls-7" x1="35.02" y1="80.63" x2="175.04" y2="80.63"/>
      <circle class="cls-5" cx="69.72" cy="42.08" r="4.89"/>
      <circle class="cls-2" cx="140.53" cy="43.85" r="4.89"/>
      <path class="cls-6" d="M97.84,46.97s6.29,3.35,5,15.88c-.27,2.61-.86,5.2-2.01,7.56-3.23,6.66-8.5,8.25-12.32,9.37"/>
      <path class="cls-6" d="M166.06,46.97s6.29,3.35,5,15.88c-.27,2.61-.86,5.2-2.01,7.56-3.23,6.66-8.5,8.25-12.32,9.37"/>
    </g>
  </g>
</svg>