<?xml version="1.0" encoding="UTF-8"?>
<svg xmlns="http://www.w3.org/2000/svg" viewBox="0 0 209.52 90.72">
  <defs>
    <style>
      .cls-1 {
        fill: #f15a29;
      }

      .cls-2 {
        isolation: isolate;
      }

      .cls-3 {
        fill: #00aeef;
      }

      .cls-4 {
        mix-blend-mode: multiply;
      }
    </style>
  </defs>
  <g class="cls-2">
    <g id="letter">
      <path class="cls-1" d="M152.88,11.05v42.74c0,16.73,9.18,21.32,18.26,21.32,10.61,0,18.16-4.9,18.16-21.32V11.05h9.49v42.23c0,23.05-12.75,29.68-27.85,29.68s-27.64-7.14-27.64-28.97V11.05h9.59Z"/>
      <path class="cls-3" d="M42.28,83.94c-19.58,0-29.58-9.49-29.58-29.68V8.87h10v44.07c0,5.3.1,10.81,3.06,15.4,3.57,5.61,10.2,7.96,16.63,7.96,7.55,0,14.89-3.37,17.95-10.61,1.73-4.08,1.84-8.57,1.84-12.96V8.87h9.69v45.6c0,18.87-10.61,29.48-29.58,29.48Z"/>
      <g class="cls-4">
        <path class="cls-3" d="M171.39,82.72c-19.58,0-29.58-9.49-29.58-29.68V7.64h10v44.07c0,5.3.1,10.81,3.06,15.4,3.57,5.61,10.2,7.96,16.63,7.96,7.55,0,14.89-3.37,17.95-10.61,1.73-4.08,1.84-8.57,1.84-12.96V7.64h9.69v45.6c0,18.87-10.61,29.48-29.58,29.48Z"/>
      </g>
      <path class="cls-1" d="M86.84,11.89v42.74c0,16.73,9.18,21.32,18.26,21.32,10.61,0,18.16-4.9,18.16-21.32V11.89h9.49v42.23c0,23.05-12.75,29.68-27.85,29.68s-27.64-7.14-27.64-28.97V11.89h9.59Z"/>
    </g>
  </g>
</svg>