<?xml version="1.0" encoding="UTF-8"?>
<svg id="letter" xmlns="http://www.w3.org/2000/svg" viewBox="0 0 209.52 90.72">
  <defs>
    <style>
      .cls-1 {
        fill: #f15a29;
      }

      .cls-2 {
        fill: #231f20;
      }

      .cls-3 {
        fill: #00aeef;
      }
    </style>
  </defs>
  <g>
    <path class="cls-3" d="M83.91,73.24v6.53c1.07-.03,2.14-.05,3.21-.05,4.08,0,8.06.1,12.24.1v-7.34c-5.23,0-10.38.16-15.45.76Z"/>
    <path class="cls-2" d="M81.92,73.49c10.71-7.65,14.59-19.38,14.59-32.13,0-20.91-10.61-36.82-33.05-36.82S29.89,21.78,29.89,42.89c0,19.89,9.89,38.05,32.03,38.05,7.39,0,14.63-.93,21.99-1.17v-6.53c-.67.08-1.33.16-1.99.26ZM63.15,73.39c-17.44,0-23.16-15.81-23.16-30.7s5.92-30.5,23.16-30.5,23.26,15.3,23.26,30.5-5.81,30.7-23.26,30.7Z"/>
  </g>
  <g>
    <path class="cls-1" d="M179.63,81.98l-16.8-11.93c-2.79,1.56-5.11,3.23-7.41,5.46l18.5,13,5.71-6.53Z"/>
    <path class="cls-2" d="M162.39,69.74c8.36-6.83,12.55-18.05,12.55-30.09,0-21.12-12.44-36.11-32.44-36.11-21.52,0-33.36,16.22-33.36,36.52s11.63,36.52,32.54,36.52c4.59,0,8.67-.71,12.34-2.04l1.39.98c2.29-2.23,4.62-3.91,7.41-5.46l-.43-.31ZM142.09,68.52c-15.3,0-23.05-13.46-23.05-28.77s7.04-28.15,23.05-28.15,23.05,12.95,23.05,28.26-6.63,28.66-23.05,28.66Z"/>
  </g>
</svg>