<?xml version="1.0" encoding="UTF-8"?>
<svg id="letter" xmlns="http://www.w3.org/2000/svg" viewBox="0 0 209.52 90.72">
  <defs>
    <style>
      .cls-1 {
        fill: #f15a29;
      }

      .cls-2 {
        fill: #231f20;
      }

      .cls-3 {
        fill: #00aeef;
      }
    </style>
  </defs>
  <rect class="cls-3" x="47.85" y="9.69" width="37.78" height="32.8" rx="12" ry="12"/>
  <rect class="cls-1" x="117.7" y="10.61" width="37.78" height="33.44" rx="12" ry="12"/>
  <g>
    <path class="cls-3" d="M93.41,73.3c-3.38.02-6.99-.67-10.34-.55.39,2.78.98,5.52,2.05,8.17h10.81c-1.33-1.94-1.94-4.39-2.45-7.14-.03-.16-.05-.32-.08-.48Z"/>
    <path class="cls-2" d="M93.41,73.3c-.94-5.43-1.06-10.47-1.55-15.23-.82-7.96-3.16-13.26-12.55-15.3,8.88-2.45,14.69-7.65,14.69-17.44,0-14.48-12.75-18.16-24.79-18.16h-26.32v73.75h9.59v-34.17h15.71c12.34,0,12.95,5.2,13.97,16.02.28,3.33.45,6.68.91,9.98,3.34-.12,6.96.57,10.34.55ZM64.42,39.51h-11.93V14.51h14.59c8.47,0,17.14,1.63,17.14,11.93,0,11.63-10.51,13.06-19.79,13.06Z"/>
  </g>
  <g>
    <path class="cls-1" d="M153.61,74.01c.13,2.78.43,5.07,1.13,6.67h9.18c-.64-1.55-.89-3.99-.98-6.67h-9.33Z"/>
    <path class="cls-2" d="M162.9,66.61v-3.06c0-12.24-5-16.63-10.81-18.16,6.83-1.84,12.14-7.45,12.14-16.73,0-11.02-7.75-18.97-22.34-18.97h-27.75v71h9.28v-31.21h14.48c12.75,0,15.61,4.39,15.61,14.48v1.43c0,3.2-.02,6.11.1,8.63h9.33c-.08-2.44-.04-5.07-.04-7.4ZM138.83,41.52h-15.4v-23.87h16.52c9.59,0,14.49,4.28,14.49,11.83,0,7.96-4.69,12.04-15.61,12.04Z"/>
  </g>
</svg>